<svg xmlns="http://www.w3.org/2000/svg" xmlns:xlink="http://www.w3.org/1999/xlink" viewBox="0 0 321.63 205.06"><defs><style>.cls-1,.cls-12,.cls-27,.cls-28,.cls-32{fill:none;}.cls-11,.cls-12,.cls-13,.cls-14,.cls-15,.cls-16,.cls-17,.cls-18,.cls-19,.cls-2,.cls-20,.cls-21,.cls-22,.cls-23,.cls-24,.cls-25,.cls-26,.cls-29,.cls-3,.cls-32,.cls-4,.cls-5,.cls-6,.cls-7,.cls-8,.cls-9{stroke:#231f20;}.cls-11,.cls-12,.cls-13,.cls-14,.cls-15,.cls-16,.cls-17,.cls-18,.cls-19,.cls-2,.cls-20,.cls-21,.cls-22,.cls-23,.cls-24,.cls-25,.cls-26,.cls-27,.cls-28,.cls-29,.cls-3,.cls-32,.cls-4,.cls-5,.cls-6,.cls-7,.cls-8,.cls-9{stroke-miterlimit:10;}.cls-2{fill:url(#linear-gradient);}.cls-3{fill:url(#linear-gradient-2);}.cls-4{fill:url(#White_Black);}.cls-5{fill:url(#Fading_Sky);}.cls-31,.cls-6{fill:#fff;}.cls-7{fill:url(#radial-gradient);}.cls-8{fill:#ed1c24;}.cls-9{fill:url(#Orange_Yellow);}.cls-10,.cls-11{fill:#231f20;}.cls-13{fill:#fff200;}.cls-14{fill:url(#radial-gradient-2);}.cls-15{fill:url(#Orange_Yellow-2);}.cls-16{fill:url(#Orange_Yellow-3);}.cls-17{fill:url(#White_Black-2);}.cls-18{fill:url(#White_Black-3);}.cls-19{fill:url(#White_Black-4);}.cls-20{fill:url(#White_Black-5);}.cls-21{fill:url(#White_Black-6);}.cls-22{fill:url(#White_Black-7);}.cls-23{fill:url(#White_Black-8);}.cls-24{fill:url(#White_Black-9);}.cls-25{fill:url(#White_Black-10);}.cls-26{fill:url(#White_Black-11);}.cls-27{stroke:#f1f2f2;}.cls-28{stroke:#fff;}.cls-29{fill:url(#White_Black-12);}.cls-30{clip-path:url(#clip-path);}.cls-32{stroke-width:2px;}</style><linearGradient id="linear-gradient" x1="108.23" y1="155.12" x2="125.53" y2="155.12" gradientUnits="userSpaceOnUse"><stop offset="0" stop-color="#231f20"/><stop offset="0.1" stop-color="#2a2627"/><stop offset="0.24" stop-color="#3e3a3b"/><stop offset="0.41" stop-color="#5e5b5c"/><stop offset="0.6" stop-color="#8b898a"/><stop offset="0.81" stop-color="#c4c3c3"/><stop offset="1" stop-color="#fff"/></linearGradient><linearGradient id="linear-gradient-2" x1="196.46" y1="137.95" x2="212.48" y2="137.95" gradientUnits="userSpaceOnUse"><stop offset="0" stop-color="#231f20"/><stop offset="0.17" stop-color="#262223"/><stop offset="0.31" stop-color="#302c2d"/><stop offset="0.44" stop-color="#403d3e"/><stop offset="0.56" stop-color="#585555"/><stop offset="0.67" stop-color="#767374"/><stop offset="0.78" stop-color="#9b9999"/><stop offset="0.88" stop-color="#c6c5c6"/><stop offset="0.99" stop-color="#f8f8f8"/><stop offset="1" stop-color="#fff"/></linearGradient><linearGradient id="White_Black" x1="121.41" y1="143.95" x2="204.33" y2="143.95" gradientUnits="userSpaceOnUse"><stop offset="0" stop-color="#fff"/><stop offset="1" stop-color="#231f20"/></linearGradient><linearGradient id="Fading_Sky" x1="138.35" y1="99.4" x2="199.54" y2="99.4" gradientUnits="userSpaceOnUse"><stop offset="0" stop-color="#2484c6"/><stop offset="1" stop-color="#2484c6" stop-opacity="0"/></linearGradient><radialGradient id="radial-gradient" cx="143.57" cy="190.18" fx="170.7392717104436" r="27.17" gradientUnits="userSpaceOnUse"><stop offset="0" stop-color="#fff"/><stop offset="0.1" stop-color="#d2d2d2"/><stop offset="0.23" stop-color="#9b9b9b"/><stop offset="0.37" stop-color="#6b6b6b"/><stop offset="0.5" stop-color="#454545"/><stop offset="0.63" stop-color="#272727"/><stop offset="0.76" stop-color="#111"/><stop offset="0.88" stop-color="#040404"/><stop offset="1"/></radialGradient><linearGradient id="Orange_Yellow" x1="170.53" y1="64.97" x2="174.53" y2="64.97" gradientUnits="userSpaceOnUse"><stop offset="0" stop-color="#fff33b"/><stop offset="0.04" stop-color="#fee72e"/><stop offset="0.12" stop-color="#fed51b"/><stop offset="0.2" stop-color="#fdca10"/><stop offset="0.28" stop-color="#fdc70c"/><stop offset="0.67" stop-color="#f3903f"/><stop offset="0.89" stop-color="#ed683c"/><stop offset="1" stop-color="#e93e3a"/></linearGradient><radialGradient id="radial-gradient-2" cx="158.33" cy="160.23" r="71.1" gradientUnits="userSpaceOnUse"><stop offset="0" stop-color="#fff"/><stop offset="0.1" stop-color="#dcdcdc"/><stop offset="0.39" stop-color="#7f7f7f"/><stop offset="0.62" stop-color="#3a3a3a"/><stop offset="0.78" stop-color="#101010"/><stop offset="0.87"/><stop offset="0.88" stop-color="#040404"/><stop offset="0.9" stop-color="#111"/><stop offset="0.92" stop-color="#262626"/><stop offset="0.94" stop-color="#434343"/><stop offset="0.95" stop-color="#696a6a"/><stop offset="0.97" stop-color="#979898"/><stop offset="0.99" stop-color="#cdcece"/><stop offset="1" stop-color="#f2f3f3"/></radialGradient><linearGradient id="Orange_Yellow-2" x1="132.53" y1="164.97" x2="138.53" y2="164.97" xlink:href="#Orange_Yellow"/><linearGradient id="Orange_Yellow-3" x1="134.53" y1="176.47" x2="141.53" y2="176.47" xlink:href="#Orange_Yellow"/><linearGradient id="White_Black-2" x1="142.66" y1="197.5" x2="163.69" y2="197.5" xlink:href="#White_Black"/><linearGradient id="White_Black-3" x1="143.18" y1="193.42" x2="161.99" y2="193.42" xlink:href="#White_Black"/><linearGradient id="White_Black-4" x1="143.18" y1="188.31" x2="159.92" y2="188.31" xlink:href="#White_Black"/><linearGradient id="White_Black-5" x1="142.66" y1="184.22" x2="158.16" y2="184.22" xlink:href="#White_Black"/><linearGradient id="White_Black-6" x1="183.85" y1="188.29" x2="204.85" y2="188.29" xlink:href="#White_Black"/><linearGradient id="White_Black-7" x1="183.36" y1="184.74" x2="203.13" y2="184.74" xlink:href="#White_Black"/><linearGradient id="White_Black-8" x1="182.87" y1="181.09" x2="201.3" y2="181.09" xlink:href="#White_Black"/><linearGradient id="White_Black-9" x1="182.35" y1="177.14" x2="199.28" y2="177.14" xlink:href="#White_Black"/><linearGradient id="White_Black-10" x1="181.97" y1="173.96" x2="197.5" y2="173.96" xlink:href="#White_Black"/><linearGradient id="White_Black-11" x1="0.59" y1="165.32" x2="113.89" y2="165.32" gradientTransform="translate(32.81 -7.91) rotate(11.07)" xlink:href="#White_Black"/><linearGradient id="White_Black-12" x1="207.74" y1="126.77" x2="321.05" y2="126.77" gradientTransform="translate(29.26 -48.41) rotate(11.07)" xlink:href="#White_Black"/><clipPath id="clip-path"><rect class="cls-1" x="174.52" y="158.79" width="20.6" height="14.57" transform="translate(-35.38 50.97) rotate(-14.34)"/></clipPath></defs><g id="Layer_2" data-name="Layer 2"><g id="Layer_1-2" data-name="Layer 1"><polyline class="cls-2" points="110.14 161.25 125.53 158.69 125.53 148.99 108.23 151.12"/><polygon class="cls-3" points="200.38 143.94 212.48 140.63 210.93 131.97 196.46 131.97 200.38 143.94"/><path class="cls-4" d="M146.33,102.93c-2.63-1.91-11.2,3.47-17,10.21-6.83,7.92-7.59,17.22-7.83,20.77-.48,7,1.55,5.29,4.59,25,1,6.25,3,12.3,3.92,18.55.3,2.06.86,6.12,3.6,7.44a5.92,5.92,0,0,0,4.23.05c6.63-2,58.27-14.82,62-15.66,3.87-.7,5-4.15,4.43-7.49-3.37-21.31-5.53-28.93-9.53-42.55-1.13-3.75-3.1-10.36-5.79-10.38-.69,0-1,.44-2,1.15-4.5,3-12.91,3.11-18.51,2.68A29.66,29.66,0,0,1,146.33,102.93Z"/><path class="cls-5" d="M138.59,90.44c-2.19,6.13,11.25,19.58,26.55,22.13,16.8,2.78,34.94-7.72,34.38-14.3s-20.43-9.86-26.89-10.9C170,87,141.4,82.55,138.59,90.44Z"/><line class="cls-6" x1="119.52" y1="76.48" x2="129.06" y2="112.91"/><line class="cls-6" x1="128.38" y1="81.59" x2="134.92" y2="107.27"/><line class="cls-6" x1="172.63" y1="67.97" x2="169.06" y2="102.11"/><polyline class="cls-7" points="142.53 183.47 142.53 204.43 165.02 199.37 157.13 179.94"/><path class="cls-8" d="M121.19,73.22c2,5.87-5.13,8.07-7.32,2.49C111.88,69.85,119,67.65,121.19,73.22Z"/><path class="cls-9" d="M170.53,65c.08-5.28,3.93-5.28,4,0S170.61,70.25,170.53,65Z"/><path class="cls-6" d="M156.53,131a10,10,0,0,1-10,10c-13.26-.53-13.26-19.48,0-20A10,10,0,0,1,156.53,131Z"/><path class="cls-6" d="M178.53,128a10,10,0,0,1-10,10c-13.26-.53-13.26-19.48,0-20A10,10,0,0,1,178.53,128Z"/><path class="cls-10" d="M151.92,130.63c3.22,0,3.23-5,0-5s-3.22,5,0,5Z"/><path class="cls-10" d="M164.52,129.27c3.22,0,3.22-5,0-5s-3.22,5,0,5Z"/><path class="cls-11" d="M139.51,158.05a70.75,70.75,0,0,0,42.67-16.68c3.33-2.85,6.66-6.78,5.83-11.08-.32,5.5,3.13,11.37.58,16.26-2.44,5.06-14.61,8.53-18,3.17"/><path class="cls-8" d="M182,147.38c1.45-1.71,3.66-2.7,5.69-3.59.33-.16.76-.12.78.3a3,3,0,0,1-.13,2.11c-.4.65-1.2.9-1.84,1.29-1.15.71-2,2.21-3.35,2.53C181.56,150.37,181.34,148.44,182,147.38Z"/><path class="cls-12" d="M138.35,91.1c2.69,4.59,9.46,6.82,15.76,8.32,14.54,3.53,31.28,5.22,45.43-.28"/><path class="cls-13" d="M130.37,77.11c1.25,5.23-5.2,6.81-6.68,1.71C122.44,73.6,128.9,72,130.37,77.11Z"/><polyline class="cls-14" points="196.27 169.91 206.37 188.09 184.26 194.59 181.72 173.76"/><path class="cls-15" d="M138.53,165a3,3,0,0,1-6,0A3,3,0,0,1,138.53,165Z"/><path class="cls-16" d="M134.53,176.47a3.5,3.5,0,0,1,7,0A3.5,3.5,0,0,1,134.53,176.47Z"/><line class="cls-17" x1="142.66" y1="199.71" x2="163.69" y2="195.29"/><line class="cls-18" x1="143.18" y1="195.29" x2="161.99" y2="191.54"/><line class="cls-19" x1="143.18" y1="190.1" x2="159.92" y2="186.52"/><line class="cls-20" x1="142.66" y1="186.01" x2="158.16" y2="182.43"/><line class="cls-21" x1="183.85" y1="191.24" x2="204.85" y2="185.35"/><line class="cls-22" x1="183.36" y1="187.22" x2="203.13" y2="182.25"/><line class="cls-23" x1="182.87" y1="183.22" x2="201.3" y2="178.96"/><line class="cls-24" x1="182.35" y1="178.96" x2="199.28" y2="175.32"/><line class="cls-25" x1="181.97" y1="175.8" x2="197.5" y2="172.12"/><rect class="cls-6" x="176.77" y="145.44" width="3.16" height="4.45" transform="translate(-51.58 120.34) rotate(-32.85)"/><rect class="cls-6" x="179.76" y="143.4" width="3.16" height="3.35" transform="translate(-49.7 121.55) rotate(-32.85)"/><rect class="cls-26" x="4.54" y="139.62" width="105.4" height="51.41" transform="translate(-30.68 14.07) rotate(-11.07)"/><polygon class="cls-27" points="22.66 168.28 13.53 170.03 7.45 163 10.49 154.22 19.63 152.47 25.7 159.5 22.66 168.28"/><polygon class="cls-27" points="27.12 193.55 17.99 195.3 11.91 188.27 14.96 179.49 24.09 177.74 30.17 184.77 27.12 193.55"/><polygon class="cls-28" points="24.6 180.99 15.47 182.74 9.39 175.71 12.44 166.93 21.56 165.18 27.64 172.21 24.6 180.99"/><polygon class="cls-27" points="41.31 164.85 32.19 166.6 26.11 159.57 29.16 150.78 38.28 149.03 44.36 156.06 41.31 164.85"/><polygon class="cls-27" points="45.78 190.12 36.65 191.87 30.57 184.84 33.62 176.05 42.75 174.3 48.83 181.34 45.78 190.12"/><polygon class="cls-28" points="43.26 177.56 34.13 179.31 28.05 172.28 31.09 163.5 40.22 161.75 46.3 168.78 43.26 177.56"/><polygon class="cls-27" points="59.92 161.49 50.79 163.24 44.71 156.21 47.76 147.43 56.88 145.68 62.97 152.71 59.92 161.49"/><polygon class="cls-27" points="64.38 186.76 55.25 188.51 49.17 181.48 52.22 172.7 61.35 170.95 67.43 177.98 64.38 186.76"/><polygon class="cls-28" points="61.86 174.2 52.73 175.95 46.65 168.92 49.7 160.14 58.83 158.39 64.91 165.42 61.86 174.2"/><polygon class="cls-27" points="78.48 157.92 69.36 159.67 63.27 152.64 66.32 143.85 75.45 142.1 81.53 149.14 78.48 157.92"/><polygon class="cls-27" points="82.95 183.19 73.82 184.94 67.74 177.91 70.79 169.13 79.92 167.37 86 174.41 82.95 183.19"/><polygon class="cls-28" points="80.42 170.63 71.3 172.38 65.22 165.35 68.26 156.57 77.39 154.82 83.47 161.85 80.42 170.63"/><polygon class="cls-27" points="96.74 154.36 87.61 156.11 81.53 149.08 84.58 140.3 93.71 138.55 99.79 145.58 96.74 154.36"/><polygon class="cls-27" points="101.21 179.63 92.08 181.38 86 174.35 89.05 165.57 98.18 163.81 104.26 170.85 101.21 179.63"/><polygon class="cls-28" points="98.68 167.07 89.55 168.82 83.47 161.79 86.52 153.01 95.65 151.26 101.73 158.29 98.68 167.07"/><rect class="cls-29" x="211.7" y="101.06" width="105.4" height="51.41" transform="matrix(0.98, -0.19, 0.19, 0.98, -19.42, 53.12)"/><polygon class="cls-27" points="229.81 129.72 220.68 131.47 214.6 124.44 217.65 115.66 226.78 113.91 232.86 120.94 229.81 129.72"/><polygon class="cls-27" points="234.28 154.99 225.15 156.74 219.06 149.71 222.11 140.93 231.24 139.18 237.32 146.21 234.28 154.99"/><polygon class="cls-28" points="231.75 142.44 222.62 144.19 216.54 137.16 219.59 128.37 228.72 126.62 234.8 133.66 231.75 142.44"/><polygon class="cls-27" points="248.47 126.29 239.34 128.04 233.26 121.01 236.31 112.23 245.44 110.48 251.52 117.51 248.47 126.29"/><polygon class="cls-27" points="252.93 151.56 243.81 153.31 237.72 146.28 240.77 137.5 249.9 135.75 255.98 142.78 252.93 151.56"/><polygon class="cls-28" points="250.41 139 241.28 140.75 235.2 133.72 238.25 124.94 247.38 123.19 253.46 130.22 250.41 139"/><polygon class="cls-27" points="267.07 122.93 257.94 124.68 251.86 117.65 254.91 108.87 264.04 107.12 270.12 114.15 267.07 122.93"/><polygon class="cls-27" points="271.54 148.2 262.41 149.95 256.33 142.92 259.38 134.14 268.5 132.39 274.58 139.42 271.54 148.2"/><polygon class="cls-28" points="269.01 135.65 259.88 137.4 253.8 130.37 256.85 121.58 265.98 119.83 272.06 126.87 269.01 135.65"/><polygon class="cls-27" points="285.64 119.36 276.51 121.11 270.43 114.08 273.48 105.3 282.61 103.55 288.69 110.58 285.64 119.36"/><polygon class="cls-27" points="290.1 144.63 280.98 146.38 274.89 139.35 277.94 130.57 287.07 128.82 293.15 135.85 290.1 144.63"/><polygon class="cls-28" points="287.58 132.08 278.45 133.83 272.37 126.8 275.42 118.01 284.55 116.26 290.63 123.29 287.58 132.08"/><polygon class="cls-27" points="303.9 115.8 294.77 117.55 288.69 110.52 291.74 101.74 300.86 99.99 306.94 107.02 303.9 115.8"/><polygon class="cls-27" points="308.36 141.07 299.23 142.82 293.15 135.79 296.2 127.01 305.33 125.26 311.41 132.29 308.36 141.07"/><polygon class="cls-28" points="305.83 128.52 296.71 130.27 290.63 123.24 293.67 114.45 302.8 112.7 308.88 119.73 305.83 128.52"/><g class="cls-30"><polygon class="cls-10" points="184.53 170.44 182.6 161.16 186.58 162.98 189.08 170.47 184.53 170.44"/><polygon points="179.07 167.72 178.46 167.88 177.81 170.09 176.16 168.47 175.56 168.62 177.66 170.63 178.01 172.01 178.54 171.87 178.19 170.5 179.07 167.72"/><polygon points="182.83 166.76 183.69 170.11 179.56 167.41 180.57 171.35 181.07 171.23 180.39 168.55 183.54 170.59 184.3 170.4 183.33 166.63 182.83 166.76"/><polygon points="193.64 165.37 194.49 165.15 194.24 164.16 191.34 164.91 191.59 165.89 192.44 165.67 193.08 168.16 194.27 167.85 193.64 165.37"/><path d="M190.26,165.18l-1.33.34-.19,3.74,1-.26v-.18l.7-.18.41-.1.09.16,1.27-.33Zm-.26,2.63-.24.06v-.42l0-.86.63,1.11Z"/><g class="cls-30"><path class="cls-31" d="M187.88,168a1.12,1.12,0,0,0-.62-.27,7.66,7.66,0,0,0-1.12,0,1,1,0,0,1-.39,0,.23.23,0,0,1-.14-.15c0-.17.07-.29.35-.37a.65.65,0,0,1,.76.25l1-.58a1.66,1.66,0,0,0-1.92-.59,2.51,2.51,0,0,0-.9.42.24.24,0,0,1-.08.43.22.22,0,0,1-.24-.07,1.23,1.23,0,0,0-.14,1,1.14,1.14,0,0,0,.5.71,2.86,2.86,0,0,0,1.53.19,1.05,1.05,0,0,1,.43,0,.25.25,0,0,1,.16.17c0,.17-.09.3-.41.38a.74.74,0,0,1-.89-.3l-1.11.51a2.06,2.06,0,0,0,.38.48l3.24-.83a1.24,1.24,0,0,0,0-.74,1.2,1.2,0,0,0-.39-.64"/><path class="cls-31" d="M184.6,167a1.23,1.23,0,0,1,.27-.29.27.27,0,0,0-.2,0,.24.24,0,0,0-.17.3.31.31,0,0,0,.05.1l0-.07"/><path class="cls-10" d="M184.79,167.11a.24.24,0,0,0,.08-.43,1.23,1.23,0,0,0-.27.29l0,.07a.22.22,0,0,0,.24.07"/></g></g><polygon class="cls-8" points="220.23 20.17 222.44 56.88 256.22 36.91 220.23 20.17"/><path class="cls-32" d="M194.17,61.46c-6.47-6.34-10.32-14.3-10.32-22.93C183.85,17.8,206,1,233.4,1S283,17.8,283,38.53,260.77,76.05,233.4,76.05a61,61,0,0,1-27.82-6.46"/><polyline class="cls-32" points="193.8 61.08 190.49 78.51 206.01 69.8"/></g></g></svg>