<svg xmlns="http://www.w3.org/2000/svg" xmlns:xlink="http://www.w3.org/1999/xlink" viewBox="0 0 321.63 144.55"><defs><style>.cls-1,.cls-12,.cls-27,.cls-28{fill:none;}.cls-11,.cls-12,.cls-13,.cls-14,.cls-15,.cls-16,.cls-17,.cls-18,.cls-19,.cls-2,.cls-20,.cls-21,.cls-22,.cls-23,.cls-24,.cls-25,.cls-26,.cls-29,.cls-3,.cls-4,.cls-5,.cls-6,.cls-7,.cls-8,.cls-9{stroke:#231f20;}.cls-11,.cls-12,.cls-13,.cls-14,.cls-15,.cls-16,.cls-17,.cls-18,.cls-19,.cls-2,.cls-20,.cls-21,.cls-22,.cls-23,.cls-24,.cls-25,.cls-26,.cls-27,.cls-28,.cls-29,.cls-3,.cls-4,.cls-5,.cls-6,.cls-7,.cls-8,.cls-9{stroke-miterlimit:10;}.cls-2{fill:url(#linear-gradient);}.cls-3{fill:url(#linear-gradient-2);}.cls-4{fill:url(#White_Black);}.cls-5{fill:url(#Fading_Sky);}.cls-31,.cls-6{fill:#fff;}.cls-7{fill:url(#radial-gradient);}.cls-8{fill:#ed1c24;}.cls-9{fill:url(#Orange_Yellow);}.cls-10,.cls-11{fill:#231f20;}.cls-13{fill:#fff200;}.cls-14{fill:url(#radial-gradient-2);}.cls-15{fill:url(#Orange_Yellow-2);}.cls-16{fill:url(#Orange_Yellow-3);}.cls-17{fill:url(#White_Black-2);}.cls-18{fill:url(#White_Black-3);}.cls-19{fill:url(#White_Black-4);}.cls-20{fill:url(#White_Black-5);}.cls-21{fill:url(#White_Black-6);}.cls-22{fill:url(#White_Black-7);}.cls-23{fill:url(#White_Black-8);}.cls-24{fill:url(#White_Black-9);}.cls-25{fill:url(#White_Black-10);}.cls-26{fill:url(#White_Black-11);}.cls-27{stroke:#f1f2f2;}.cls-28{stroke:#fff;}.cls-29{fill:url(#White_Black-12);}.cls-30{clip-path:url(#clip-path);}</style><linearGradient id="linear-gradient" x1="108.23" y1="94.61" x2="125.53" y2="94.61" gradientUnits="userSpaceOnUse"><stop offset="0" stop-color="#231f20"/><stop offset="0.1" stop-color="#2a2627"/><stop offset="0.24" stop-color="#3e3a3b"/><stop offset="0.41" stop-color="#5e5b5c"/><stop offset="0.6" stop-color="#8b898a"/><stop offset="0.81" stop-color="#c4c3c3"/><stop offset="1" stop-color="#fff"/></linearGradient><linearGradient id="linear-gradient-2" x1="196.46" y1="77.45" x2="212.48" y2="77.45" gradientUnits="userSpaceOnUse"><stop offset="0" stop-color="#231f20"/><stop offset="0.17" stop-color="#262223"/><stop offset="0.31" stop-color="#302c2d"/><stop offset="0.44" stop-color="#403d3e"/><stop offset="0.56" stop-color="#585555"/><stop offset="0.67" stop-color="#767374"/><stop offset="0.78" stop-color="#9b9999"/><stop offset="0.88" stop-color="#c6c5c6"/><stop offset="0.99" stop-color="#f8f8f8"/><stop offset="1" stop-color="#fff"/></linearGradient><linearGradient id="White_Black" x1="121.41" y1="83.44" x2="204.33" y2="83.44" gradientUnits="userSpaceOnUse"><stop offset="0" stop-color="#fff"/><stop offset="1" stop-color="#231f20"/></linearGradient><linearGradient id="Fading_Sky" x1="138.35" y1="38.89" x2="199.54" y2="38.89" gradientUnits="userSpaceOnUse"><stop offset="0" stop-color="#2484c6"/><stop offset="1" stop-color="#2484c6" stop-opacity="0"/></linearGradient><radialGradient id="radial-gradient" cx="143.57" cy="129.68" fx="170.73927171044352" r="27.17" gradientUnits="userSpaceOnUse"><stop offset="0" stop-color="#fff"/><stop offset="0.1" stop-color="#d2d2d2"/><stop offset="0.23" stop-color="#9b9b9b"/><stop offset="0.37" stop-color="#6b6b6b"/><stop offset="0.5" stop-color="#454545"/><stop offset="0.63" stop-color="#272727"/><stop offset="0.76" stop-color="#111"/><stop offset="0.88" stop-color="#040404"/><stop offset="1"/></radialGradient><linearGradient id="Orange_Yellow" x1="170.53" y1="4.46" x2="174.53" y2="4.46" gradientUnits="userSpaceOnUse"><stop offset="0" stop-color="#fff33b"/><stop offset="0.04" stop-color="#fee72e"/><stop offset="0.12" stop-color="#fed51b"/><stop offset="0.2" stop-color="#fdca10"/><stop offset="0.28" stop-color="#fdc70c"/><stop offset="0.67" stop-color="#f3903f"/><stop offset="0.89" stop-color="#ed683c"/><stop offset="1" stop-color="#e93e3a"/></linearGradient><radialGradient id="radial-gradient-2" cx="158.33" cy="99.72" r="71.1" gradientUnits="userSpaceOnUse"><stop offset="0" stop-color="#fff"/><stop offset="0.1" stop-color="#dcdcdc"/><stop offset="0.39" stop-color="#7f7f7f"/><stop offset="0.62" stop-color="#3a3a3a"/><stop offset="0.78" stop-color="#101010"/><stop offset="0.87"/><stop offset="0.88" stop-color="#040404"/><stop offset="0.9" stop-color="#111"/><stop offset="0.92" stop-color="#262626"/><stop offset="0.94" stop-color="#434343"/><stop offset="0.95" stop-color="#696a6a"/><stop offset="0.97" stop-color="#979898"/><stop offset="0.99" stop-color="#cdcece"/><stop offset="1" stop-color="#f2f3f3"/></radialGradient><linearGradient id="Orange_Yellow-2" x1="132.53" y1="104.46" x2="138.53" y2="104.46" xlink:href="#Orange_Yellow"/><linearGradient id="Orange_Yellow-3" x1="134.53" y1="115.96" x2="141.53" y2="115.96" xlink:href="#Orange_Yellow"/><linearGradient id="White_Black-2" x1="142.66" y1="137" x2="163.69" y2="137" xlink:href="#White_Black"/><linearGradient id="White_Black-3" x1="143.18" y1="132.91" x2="161.99" y2="132.91" xlink:href="#White_Black"/><linearGradient id="White_Black-4" x1="143.18" y1="127.8" x2="159.92" y2="127.8" xlink:href="#White_Black"/><linearGradient id="White_Black-5" x1="142.66" y1="123.72" x2="158.16" y2="123.72" xlink:href="#White_Black"/><linearGradient id="White_Black-6" x1="183.85" y1="127.79" x2="204.85" y2="127.79" xlink:href="#White_Black"/><linearGradient id="White_Black-7" x1="183.36" y1="124.23" x2="203.13" y2="124.23" xlink:href="#White_Black"/><linearGradient id="White_Black-8" x1="182.87" y1="120.58" x2="201.3" y2="120.58" xlink:href="#White_Black"/><linearGradient id="White_Black-9" x1="182.35" y1="116.63" x2="199.28" y2="116.63" xlink:href="#White_Black"/><linearGradient id="White_Black-10" x1="181.97" y1="113.46" x2="197.5" y2="113.46" xlink:href="#White_Black"/><linearGradient id="White_Black-11" x1="0.59" y1="104.82" x2="113.89" y2="104.82" gradientTransform="translate(21.19 -9.04) rotate(11.07)" xlink:href="#White_Black"/><linearGradient id="White_Black-12" x1="207.74" y1="66.26" x2="321.05" y2="66.26" gradientTransform="translate(17.64 -49.53) rotate(11.07)" xlink:href="#White_Black"/><clipPath id="clip-path"><rect class="cls-1" x="174.52" y="98.29" width="20.6" height="14.57" transform="translate(-20.39 49.08) rotate(-14.34)"/></clipPath></defs><g id="Layer_2" data-name="Layer 2"><g id="Layer_1-2" data-name="Layer 1"><polyline class="cls-2" points="110.14 100.74 125.53 98.19 125.53 88.48 108.23 90.61"/><polygon class="cls-3" points="200.38 83.43 212.48 80.12 210.93 71.46 196.46 71.46 200.38 83.43"/><path class="cls-4" d="M146.33,42.42c-2.63-1.9-11.2,3.47-17,10.22-6.83,7.91-7.59,17.21-7.83,20.76-.48,7,1.55,5.3,4.59,25,1,6.25,3,12.31,3.92,18.56.3,2,.86,6.11,3.6,7.43a5.88,5.88,0,0,0,4.23.06c6.63-2,58.27-14.82,62-15.66,3.87-.71,5-4.15,4.43-7.49-3.37-21.32-5.53-28.94-9.53-42.55-1.13-3.76-3.1-10.37-5.79-10.38-.69,0-1,.44-2,1.14-4.5,3-12.91,3.12-18.51,2.68A29.66,29.66,0,0,1,146.33,42.42Z"/><path class="cls-5" d="M138.59,29.93c-2.19,6.14,11.25,19.59,26.55,22.13,16.8,2.79,34.94-7.71,34.38-14.3s-20.43-9.86-26.89-10.89C170,26.44,141.4,22.05,138.59,29.93Z"/><line class="cls-6" x1="119.52" y1="15.97" x2="129.06" y2="52.4"/><line class="cls-6" x1="128.38" y1="21.08" x2="134.92" y2="46.76"/><line class="cls-6" x1="172.63" y1="7.46" x2="169.06" y2="41.6"/><polyline class="cls-7" points="142.53 122.96 142.53 143.93 165.02 138.87 157.13 119.43"/><path class="cls-8" d="M121.19,12.72c2,5.86-5.13,8.06-7.32,2.48C111.88,9.34,119,7.14,121.19,12.72Z"/><path class="cls-9" d="M170.53,4.46c.08-5.28,3.93-5.28,4,0S170.61,9.74,170.53,4.46Z"/><path class="cls-6" d="M156.53,70.46a10,10,0,0,1-10,10c-13.26-.53-13.26-19.47,0-20A10,10,0,0,1,156.53,70.46Z"/><path class="cls-6" d="M178.53,67.46a10,10,0,0,1-10,10c-13.26-.53-13.26-19.47,0-20A10,10,0,0,1,178.53,67.46Z"/><path class="cls-10" d="M151.92,70.12c3.22,0,3.23-5,0-5s-3.22,5,0,5Z"/><path class="cls-10" d="M164.52,68.76c3.22,0,3.22-5,0-5s-3.22,5,0,5Z"/><path class="cls-11" d="M139.51,97.54a70.68,70.68,0,0,0,42.67-16.68c3.33-2.84,6.66-6.78,5.83-11.08-.32,5.51,3.13,11.38.58,16.27-2.44,5.06-14.61,8.52-18,3.16"/><path class="cls-8" d="M182,86.88c1.45-1.71,3.66-2.71,5.69-3.6.33-.16.76-.12.78.3a3,3,0,0,1-.13,2.12c-.4.64-1.2.89-1.84,1.29-1.15.7-2,2.21-3.35,2.52C181.56,89.87,181.34,87.93,182,86.88Z"/><path class="cls-12" d="M138.35,30.59c2.69,4.59,9.46,6.83,15.76,8.32,14.54,3.53,31.28,5.22,45.43-.28"/><path class="cls-13" d="M130.37,16.61c1.25,5.22-5.2,6.8-6.68,1.7C122.44,13.09,128.9,11.51,130.37,16.61Z"/><polyline class="cls-14" points="196.27 109.41 206.37 127.58 184.26 134.08 181.72 113.26"/><path class="cls-15" d="M138.53,104.46a3,3,0,0,1-6,0A3,3,0,0,1,138.53,104.46Z"/><path class="cls-16" d="M134.53,116a3.5,3.5,0,0,1,7,0A3.5,3.5,0,0,1,134.53,116Z"/><line class="cls-17" x1="142.66" y1="139.21" x2="163.69" y2="134.78"/><line class="cls-18" x1="143.18" y1="134.78" x2="161.99" y2="131.04"/><line class="cls-19" x1="143.18" y1="129.59" x2="159.92" y2="126.01"/><line class="cls-20" x1="142.66" y1="125.51" x2="158.16" y2="121.92"/><line class="cls-21" x1="183.85" y1="130.73" x2="204.85" y2="124.85"/><line class="cls-22" x1="183.36" y1="126.72" x2="203.13" y2="121.74"/><line class="cls-23" x1="182.87" y1="122.72" x2="201.3" y2="118.45"/><line class="cls-24" x1="182.35" y1="118.45" x2="199.28" y2="114.82"/><line class="cls-25" x1="181.97" y1="115.3" x2="197.5" y2="111.61"/><rect class="cls-6" x="176.77" y="84.93" width="3.16" height="4.45" transform="translate(-18.76 110.66) rotate(-32.85)"/><rect class="cls-6" x="179.76" y="82.89" width="3.16" height="3.35" transform="translate(-16.88 111.87) rotate(-32.85)"/><rect class="cls-26" x="4.54" y="79.11" width="105.4" height="51.41" transform="translate(-19.06 12.94) rotate(-11.07)"/><polygon class="cls-27" points="22.66 107.77 13.53 109.52 7.45 102.49 10.49 93.71 19.63 91.96 25.7 98.99 22.66 107.77"/><polygon class="cls-27" points="27.12 133.04 17.99 134.79 11.91 127.76 14.96 118.98 24.09 117.23 30.17 124.26 27.12 133.04"/><polygon class="cls-28" points="24.6 120.49 15.47 122.24 9.39 115.21 12.44 106.42 21.56 104.67 27.64 111.7 24.6 120.49"/><polygon class="cls-27" points="41.31 104.34 32.19 106.09 26.11 99.06 29.16 90.28 38.28 88.53 44.36 95.56 41.31 104.34"/><polygon class="cls-27" points="45.78 129.61 36.65 131.36 30.57 124.33 33.62 115.55 42.75 113.8 48.83 120.83 45.78 129.61"/><polygon class="cls-28" points="43.26 117.06 34.13 118.81 28.05 111.77 31.09 102.99 40.22 101.24 46.3 108.27 43.26 117.06"/><polygon class="cls-27" points="59.92 100.98 50.79 102.73 44.71 95.7 47.76 86.92 56.88 85.17 62.97 92.2 59.92 100.98"/><polygon class="cls-27" points="64.38 126.25 55.25 128 49.17 120.97 52.22 112.19 61.35 110.44 67.43 117.47 64.38 126.25"/><polygon class="cls-28" points="61.86 113.7 52.73 115.45 46.65 108.42 49.7 99.64 58.83 97.89 64.91 104.92 61.86 113.7"/><polygon class="cls-27" points="78.48 97.41 69.36 99.16 63.27 92.13 66.32 83.35 75.45 81.6 81.53 88.63 78.48 97.41"/><polygon class="cls-27" points="82.95 122.68 73.82 124.43 67.74 117.4 70.79 108.62 79.92 106.87 86 113.9 82.95 122.68"/><polygon class="cls-28" points="80.42 110.13 71.3 111.88 65.22 104.84 68.26 96.06 77.39 94.31 83.47 101.34 80.42 110.13"/><polygon class="cls-27" points="96.74 93.85 87.61 95.6 81.53 88.57 84.58 79.79 93.71 78.04 99.79 85.07 96.74 93.85"/><polygon class="cls-27" points="101.21 119.12 92.08 120.87 86 113.84 89.05 105.06 98.18 103.31 104.26 110.34 101.21 119.12"/><polygon class="cls-28" points="98.68 106.57 89.55 108.32 83.47 101.29 86.52 92.5 95.65 90.75 101.73 97.79 98.68 106.57"/><rect class="cls-29" x="211.7" y="40.55" width="105.4" height="51.41" transform="matrix(0.98, -0.19, 0.19, 0.98, -7.8, 52)"/><polygon class="cls-27" points="229.81 69.22 220.68 70.97 214.6 63.93 217.65 55.15 226.78 53.4 232.86 60.43 229.81 69.22"/><polygon class="cls-27" points="234.28 94.48 225.15 96.23 219.06 89.2 222.11 80.42 231.24 78.67 237.32 85.7 234.28 94.48"/><polygon class="cls-28" points="231.75 81.93 222.62 83.68 216.54 76.65 219.59 67.87 228.72 66.12 234.8 73.15 231.75 81.93"/><polygon class="cls-27" points="248.47 65.78 239.34 67.53 233.26 60.5 236.31 51.72 245.44 49.97 251.52 57 248.47 65.78"/><polygon class="cls-27" points="252.93 91.05 243.81 92.8 237.72 85.77 240.77 76.99 249.9 75.24 255.98 82.27 252.93 91.05"/><polygon class="cls-28" points="250.41 78.5 241.28 80.25 235.2 73.22 238.25 64.44 247.38 62.69 253.46 69.72 250.41 78.5"/><polygon class="cls-27" points="267.07 62.42 257.94 64.18 251.86 57.14 254.91 48.36 264.04 46.61 270.12 53.64 267.07 62.42"/><polygon class="cls-27" points="271.54 87.69 262.41 89.44 256.33 82.41 259.38 73.63 268.5 71.88 274.58 78.91 271.54 87.69"/><polygon class="cls-28" points="269.01 75.14 259.88 76.89 253.8 69.86 256.85 61.08 265.98 59.33 272.06 66.36 269.01 75.14"/><polygon class="cls-27" points="285.64 58.85 276.51 60.6 270.43 53.57 273.48 44.79 282.61 43.04 288.69 50.07 285.64 58.85"/><polygon class="cls-27" points="290.1 84.12 280.98 85.87 274.89 78.84 277.94 70.06 287.07 68.31 293.15 75.34 290.1 84.12"/><polygon class="cls-28" points="287.58 71.57 278.45 73.32 272.37 66.29 275.42 57.51 284.55 55.76 290.63 62.79 287.58 71.57"/><polygon class="cls-27" points="303.9 55.3 294.77 57.05 288.69 50.01 291.74 41.23 300.86 39.48 306.94 46.51 303.9 55.3"/><polygon class="cls-27" points="308.36 80.56 299.23 82.31 293.15 75.28 296.2 66.5 305.33 64.75 311.41 71.78 308.36 80.56"/><polygon class="cls-28" points="305.83 68.01 296.71 69.76 290.63 62.73 293.67 53.95 302.8 52.2 308.88 59.23 305.83 68.01"/><g class="cls-30"><polygon class="cls-10" points="184.53 109.93 182.6 100.65 186.58 102.48 189.08 109.97 184.53 109.93"/><polygon points="179.07 107.22 178.46 107.37 177.81 109.58 176.16 107.96 175.56 108.11 177.66 110.13 178.01 111.5 178.54 111.37 178.19 109.99 179.07 107.22"/><polygon points="182.83 106.25 183.69 109.6 179.56 106.91 180.57 110.85 181.07 110.72 180.39 108.05 183.54 110.09 184.3 109.89 183.33 106.13 182.83 106.25"/><polygon points="193.64 104.86 194.49 104.64 194.24 103.66 191.34 104.4 191.59 105.38 192.44 105.17 193.08 107.65 194.27 107.34 193.64 104.86"/><path d="M190.26,104.67l-1.33.34-.19,3.75,1-.26v-.19l.7-.17.41-.11.09.16,1.27-.33ZM190,107.3l-.24.06v-.42l0-.86.63,1.11Z"/><g class="cls-30"><path class="cls-31" d="M187.88,107.51a1.14,1.14,0,0,0-.62-.28,7.66,7.66,0,0,0-1.12,0,1,1,0,0,1-.39,0,.2.2,0,0,1-.14-.15c0-.17.07-.29.35-.36a.64.64,0,0,1,.76.24l1-.58a1.66,1.66,0,0,0-1.92-.59,2.36,2.36,0,0,0-.9.43.22.22,0,0,1,.1.13.26.26,0,0,1-.18.3.26.26,0,0,1-.24-.07,1.21,1.21,0,0,0-.14,1,1.11,1.11,0,0,0,.5.71,2.86,2.86,0,0,0,1.53.19,1.27,1.27,0,0,1,.43,0,.24.24,0,0,1,.16.18c0,.17-.09.29-.41.37a.71.71,0,0,1-.89-.3l-1.11.51a2.06,2.06,0,0,0,.38.48l3.24-.82a1.27,1.27,0,0,0,0-.75,1.21,1.21,0,0,0-.39-.63"/><path class="cls-31" d="M184.6,106.46a1.19,1.19,0,0,1,.27-.28.23.23,0,0,0-.2,0,.23.23,0,0,0-.17.29.37.37,0,0,0,.05.11l0-.08"/><path class="cls-10" d="M184.79,106.61a.26.26,0,0,0,.18-.3.22.22,0,0,0-.1-.13,1.19,1.19,0,0,0-.27.28l0,.08a.26.26,0,0,0,.24.07"/></g></g></g></g></svg>