<svg xmlns="http://www.w3.org/2000/svg" xmlns:xlink="http://www.w3.org/1999/xlink" viewBox="0 0 418 86.34"><defs><style>.cls-1,.cls-18,.cls-6{fill:#00aeef;}.cls-1,.cls-19,.cls-20,.cls-22,.cls-3,.cls-6{stroke:#231f20;stroke-miterlimit:10;}.cls-1,.cls-3{stroke-width:2px;}.cls-2{fill:#8dc63f;}.cls-24,.cls-3{fill:none;}.cls-19,.cls-20,.cls-4{fill:#231f20;}.cls-5{fill:#fff;}.cls-19,.cls-6{stroke-width:0.05px;}.cls-7{fill:#d1d3d4;}.cls-8{fill:#808285;}.cls-9{fill:#fbb040;}.cls-10{fill:#99ca3c;}.cls-11{fill:#c4549f;}.cls-12{fill:#f15642;}.cls-13{fill:url(#Fading_Sky);}.cls-14{fill:#e6e7e8;}.cls-15,.cls-22{fill:#ed1c24;}.cls-16{fill:#603913;}.cls-17{fill:url(#Orange_Yellow);}.cls-20{stroke-width:0.25px;}.cls-21{fill:url(#Fading_Sky-2);}.cls-22{stroke-width:0.4px;}.cls-23{fill:#ec008c;}</style><linearGradient id="Fading_Sky" x1="259.33" y1="46.62" x2="285.71" y2="46.62" gradientUnits="userSpaceOnUse"><stop offset="0" stop-color="#2484c6"/><stop offset="1" stop-color="#2484c6" stop-opacity="0"/></linearGradient><linearGradient id="Orange_Yellow" x1="161.1" y1="70.44" x2="172.47" y2="70.44" gradientUnits="userSpaceOnUse"><stop offset="0" stop-color="#fff33b"/><stop offset="0.04" stop-color="#fee72e"/><stop offset="0.12" stop-color="#fed51b"/><stop offset="0.2" stop-color="#fdca10"/><stop offset="0.28" stop-color="#fdc70c"/><stop offset="0.67" stop-color="#f3903f"/><stop offset="0.89" stop-color="#ed683c"/><stop offset="1" stop-color="#e93e3a"/></linearGradient><linearGradient id="Fading_Sky-2" x1="161.39" y1="36.15" x2="170.15" y2="36.15" xlink:href="#Fading_Sky"/></defs><g id="Layer_2" data-name="Layer 2"><g id="Layer_1-2" data-name="Layer 1"><path class="cls-1" d="M102.45,62.2c-1.9-3.55-2.62-7.6-3.22-11.59-.83-5.55-1.46-11.33.27-16.67a39.59,39.59,0,0,1,3.87-7.76l-1.13-.94A11.26,11.26,0,0,0,95.63,23c-2.1,0-4.37.54-6.22-.46,1.14-1.3,2.34-2.78,2.3-4.5a4.36,4.36,0,0,0-2-3.37,7.75,7.75,0,0,0-3.85-1.19c-2.65-.21-5.67.63-6.92,3a4.84,4.84,0,0,0,2.27,6.44C77,22.51,73,24.55,69.48,26.87c-2.77,1.83-5.49,4-6.94,7-1.37,2.83-1.45,6.1-1.49,9.24a6,6,0,0,1,2.09-1.75,4,4,0,0,1,4.4,1.4A7.92,7.92,0,0,1,69,47.35,7.48,7.48,0,0,1,68.4,51a3.54,3.54,0,0,1-2.93,2c-1.92,0-3.25-1.83-4.22-3.48.23,3-.27,6-.12,9s1.15,6.21,3.61,7.93c2.16,1.52,5,1.6,7.64,1.51a26.42,26.42,0,0,0,8.4-1.34,11,11,0,0,0,6.31-5.44A5.53,5.53,0,0,0,90,65.8a11.57,11.57,0,0,0,5.43,1.37c1.36.07,2.73,0,4.1,0s3.26-.3,3.78-1.67C103.67,64.41,103,63.24,102.45,62.2ZM88.6,37.49A36.07,36.07,0,0,1,86,49.43a5.72,5.72,0,0,1-1.61,2.49,4.55,4.55,0,0,1-3.73.64,8.34,8.34,0,0,1-6.32-9.27c.46-2.63,2.19-4.84,4-6.86A18.75,18.75,0,0,1,82,32.93a7.37,7.37,0,0,1,4.86-1.3l.34.28C88.54,33.36,88.69,35.52,88.6,37.49Z"/><path class="cls-2" d="M71.17,29.35c-.92-.51-1.73-1.5-1.19-2.54a5.82,5.82,0,0,1,1.94-1.71,15.38,15.38,0,0,1,7.79-2.72h.17a3.58,3.58,0,0,1-.49-1.43,1.23,1.23,0,0,1,.69-1.24c.84-.31,1.56.64,2.35,1.05a2.09,2.09,0,0,0,2.21-.23,1.09,1.09,0,0,0,.45-1c-.11-.59-.88-.77-1.47-.72a2.47,2.47,0,0,1-1.75-.18,6.84,6.84,0,0,1,0-2.43,1.13,1.13,0,0,1,1.36.1c.4.3.68.72,1,1a4.9,4.9,0,0,0,3.13.86A34.56,34.56,0,0,0,92.2,18c.57,1.5-2,2.73-1.68,4.3.29,1.18,1.9,1.29,3.1,1.16,3.3-.38,7.09-.53,9.44,1.81a1.84,1.84,0,0,1,.59,1,2.13,2.13,0,0,1-.26,1l-3.32,7.48c-.51,1.15-1.22,2.45-2.46,2.61a2.39,2.39,0,0,1-2.15-1.06A5.43,5.43,0,0,1,94.6,34a1.76,1.76,0,0,0-.42-1,1.15,1.15,0,0,0-1.59.28A3.4,3.4,0,0,0,92,34.93c-1.15.24-2.64.34-3.19-.7-.26-.5-.19-1.12-.43-1.64-.52-1.1-2.09-1.11-3.27-.8A16.91,16.91,0,0,0,80.27,34a1.07,1.07,0,0,1-.55.23c-.69,0-.65-1-.72-1.71a2.61,2.61,0,0,0-1.57-2c-1.76-.83-3.82-.38-5.65-.94A3.19,3.19,0,0,1,71.17,29.35Z"/><path class="cls-2" d="M67.69,62.16c0,.42.07.84.08,1.26a12.68,12.68,0,0,1-.11,1.85c0,.32-.12,1.24-.57,1.33-.27.05-.49-.28-.62-.47a3.05,3.05,0,0,1-.4-2.49,1.41,1.41,0,0,1,.4-.54C66.61,63,67.7,62.29,67.69,62.16Z"/><path class="cls-2" d="M65.2,31.08A2.74,2.74,0,0,1,68,32.67a2.19,2.19,0,0,0,.28.55,1.79,1.79,0,0,0,.42.3l2.9,1.57a3.23,3.23,0,0,1,.77.54,1.73,1.73,0,0,1,.37.59,2.1,2.1,0,0,1-.45,2.11,2.36,2.36,0,0,1-2.08.69,5,5,0,0,1-2.44-1.53,3.72,3.72,0,0,1-.78-.9c-.16-.31-.22-.67-.39-1a.87.87,0,0,0-.83-.53.79.79,0,0,0-.6.74,2.52,2.52,0,0,0,.19,1c.25.77.36,1.78-.3,2.24a1.4,1.4,0,0,1-1.8-.45,4.11,4.11,0,0,1-.62-1.92"/><path class="cls-3" d="M102.24,25.43a11.34,11.34,0,0,0-6.61-2.22c-2.1,0-4.37.54-6.22-.46,1.14-1.3,2.34-2.77,2.3-4.49a4.39,4.39,0,0,0-2-3.38,8,8,0,0,0-3.85-1.19c-2.65-.2-5.67.63-6.92,3a4.84,4.84,0,0,0,2.27,6.44C77,22.7,73,24.74,69.48,27.06c-2.77,1.82-5.49,4-6.94,7-1.37,2.83-1.45,6.09-1.49,9.24a6,6,0,0,1,2.09-1.75,4,4,0,0,1,4.4,1.4A7.92,7.92,0,0,1,69,47.54a7.42,7.42,0,0,1-.61,3.65,3.5,3.5,0,0,1-2.93,2c-1.92,0-3.25-1.82-4.22-3.47.23,3-.27,6-.12,9s1.15,6.2,3.61,7.93c2.16,1.52,5,1.6,7.64,1.5a26.42,26.42,0,0,0,8.4-1.33,11,11,0,0,0,6.31-5.44A5.53,5.53,0,0,0,90,66a11.82,11.82,0,0,0,5.43,1.37c1.36.07,2.73,0,4.1,0s3.26-.3,3.78-1.67c.41-1.1-.26-2.27-.81-3.3-1.9-3.55-2.62-7.6-3.22-11.59-.83-5.55-1.46-11.33.27-16.67a39.67,39.67,0,0,1,3.87-7.77"/><path class="cls-2" d="M83.27,23a22.78,22.78,0,0,1-4,.76c-.31.05-.67.16-.74.46a.7.7,0,0,0,.2.6,2.9,2.9,0,0,0,1.32.85,8.35,8.35,0,0,0,1.57.29c2,.23,4.06.36,6.1.4h.66a1.12,1.12,0,0,0,.63-.13.94.94,0,0,0,.19-1.1,2.9,2.9,0,0,0-.74-1,7.7,7.7,0,0,0-2.12-1.22c-.46-.21-.93-.41-1.39-.6s-1-.36-1.43-.5a8.14,8.14,0,0,0-1.47-.29l-.37,0a.6.6,0,0,0-.19,0s0,.09.06.12a4.14,4.14,0,0,0,.44.5,5,5,0,0,0,1.08.81Z"/><path class="cls-4" d="M101.52,26.34l.56.52a3.62,3.62,0,0,0,.78.6.68.68,0,0,0,.78,0c.26-.26.16-.79.26-1.18a.93.93,0,0,0,0-.24.86.86,0,0,0-.07-.21A4.8,4.8,0,0,0,102.19,24a1.92,1.92,0,0,0-.58-.34,1.32,1.32,0,0,0-.59,0,1.21,1.21,0,0,0-.69.28,1,1,0,0,0-.16.93,1.5,1.5,0,0,0,.56.79A9.22,9.22,0,0,1,101.52,26.34Z"/><path class="cls-4" d="M103.81,25.39a.22.22,0,0,1-.21.17.14.14,0,0,1,.09-.08,1.67,1.67,0,0,0-.65.22.67.67,0,0,0-.32.58,1.08,1.08,0,0,0,.09.29,1.79,1.79,0,0,0,.42.62.63.63,0,0,0,.7.12.81.81,0,0,0,.29-.29,2.21,2.21,0,0,0,.38-.89.36.36,0,0,0-.06-.32,2.2,2.2,0,0,0-.25-.17l-.24-.14Z"/><path class="cls-3" d="M88.6,37.49A36.07,36.07,0,0,1,86,49.43a5.72,5.72,0,0,1-1.61,2.49,4.55,4.55,0,0,1-3.73.64,8.34,8.34,0,0,1-6.32-9.27c.46-2.63,2.19-4.84,4-6.86A18.75,18.75,0,0,1,82,32.93a7.37,7.37,0,0,1,4.86-1.3l.34.28C88.54,33.36,88.69,35.52,88.6,37.49Z"/><path class="cls-5" d="M166.12,21.38a9.56,9.56,0,0,1,3.22,4q1.24,2.31,2.37,4.68a23.35,23.35,0,0,1,1.67,4.24,26.29,26.29,0,0,1,.48,7.26c-.13,4.6-.27,9.28-1.79,13.62a45.64,45.64,0,0,1-2.18,5l-2,0c-1.56,0-3-.08-4.55-.07l-2.27,0a.83.83,0,0,1-1-.69,52.92,52.92,0,0,1-2.16-7.94c-.79-3.61-1.59-7.33-1-11A25.6,25.6,0,0,1,158,36.31a36.58,36.58,0,0,1,5.47-11,13.1,13.1,0,0,0,2-3"/><path class="cls-4" d="M165.61,22.24a8.56,8.56,0,0,1,2.69,3.3c.83,1.5,1.6,3,2.34,4.58a23.08,23.08,0,0,1,1.83,4.64,20.46,20.46,0,0,1,.42,5.18,73.53,73.53,0,0,1-.6,10.06A32.88,32.88,0,0,1,169,59.62l.87-.49c-1.88,0-3.76-.08-5.64-.1-.61,0-1.22,0-1.83,0-.29,0-1.17.16-1.36,0a4.79,4.79,0,0,1-.46-1.25c-.14-.43-.27-.87-.4-1.31A54.78,54.78,0,0,1,157.75,44c-.2-4.1,1.23-8.11,2.84-11.82a32.36,32.36,0,0,1,2.62-4.89c1-1.55,2.41-2.88,3.16-4.6.52-1.16-1.21-2.18-1.73-1-.83,1.9-2.41,3.39-3.51,5.14a36.17,36.17,0,0,0-2.78,5.57c-1.75,4.3-3,8.61-2.46,13.29a69.78,69.78,0,0,0,1.28,6.87A48.7,48.7,0,0,0,159,59.2c.26.7.51,1.43,1.27,1.72a8.83,8.83,0,0,0,3.08.11c2.18,0,4.37.07,6.56.1a1,1,0,0,0,.86-.5,34.65,34.65,0,0,0,3.53-10.55A75.73,75.73,0,0,0,174.9,39a20.05,20.05,0,0,0-.67-5.45,30.91,30.91,0,0,0-2.07-4.89c-1.39-2.86-2.75-6.38-5.54-8.16-1.08-.7-2.09,1-1,1.72Z"/><path class="cls-6" d="M4.42,53.62c.84-2.11,1.56-4.27,2.35-6.4,1.3-3.56,2.79-7,4.28-10.54l6.13-14.4a17.27,17.27,0,0,1,1.15-2.37,10.41,10.41,0,0,1,1.9-2.24c1.42-1.29,3.59-2.25,5.22-1.22A4.78,4.78,0,0,1,26.81,18c4.94,7.51,4.63,17.19,4.13,26.16,4-10.39,10.41-20.18,19.78-26.18a5.48,5.48,0,0,1,3.15-1.13c2.1.13,3.36,2.34,4.08,4.31A38.65,38.65,0,0,1,60.23,33.8c0,2.83-.21,5.83,1.08,8.35a12.4,12.4,0,0,1,4.07-.78,4.22,4.22,0,0,1,3.54,1.85,5.89,5.89,0,0,1,.63,2.3,11,11,0,0,1-.18,4.84,4.21,4.21,0,0,1-3.48,3c-1.83.09-3.32-1.37-4.56-2.72l0,10.31c0,2.1-.05,4.4-1.38,6a8.49,8.49,0,0,1-3.2,2.15,13.22,13.22,0,0,1-5.15,1.42,5.62,5.62,0,0,1-4.72-2.12,8,8,0,0,1-1.1-3,64.93,64.93,0,0,1-1.21-18.18A2.25,2.25,0,0,0,42,48a7.19,7.19,0,0,0-1.22,2.61,103.79,103.79,0,0,1-5.13,12.17,12.53,12.53,0,0,1-2.17,3.53,9.93,9.93,0,0,1-5,2.44,5.48,5.48,0,0,1-3.16,0c-1.68-.66-2.44-2.59-3-4.32a130.84,130.84,0,0,1-3.69-15.35c-1.13,1.08-1.31,2.8-1.61,4.34-.78,4-2.85,7.72-4.9,11.31-1.09,1.91-2.25,3.91-4.09,5.12s-4.6,1.35-6.08-.3-.9-3.76-1.15-5.71a6.92,6.92,0,0,1,.61-3c.39-1.16.84-2.3,1.32-3.43S3.9,54.9,4.42,53.62Z"/><path class="cls-7" d="M255.16,41.48a8.62,8.62,0,0,0-2.38.07,2.9,2.9,0,0,0-1.92,1.3,5.46,5.46,0,0,0-.29,2.85c0,.93-.08,1.86,0,2.79a4.09,4.09,0,0,0,.95,2.57,2.17,2.17,0,0,0,2.54.53"/><path class="cls-4" d="M255.16,40.23c-1.69-.11-3.56,0-4.83,1.27s-1,3.25-1,5-.14,3.51.9,5a3.51,3.51,0,0,0,4.45,1.21,1.26,1.26,0,0,0,.45-1.71,1.28,1.28,0,0,0-1.71-.45c.11,0-.19.06-.22.07.18,0-.16,0,0,0l-.4-.12a1.56,1.56,0,0,1-.68-.77c-.49-1.08-.25-2.39-.25-3.58,0-.88-.32-2.27.33-2.89a2.2,2.2,0,0,1,1.15-.49,8.9,8.9,0,0,1,1.86,0,1.25,1.25,0,1,0,0-2.5Z"/><path class="cls-8" d="M256.91,58.45c-.55,1.44-1.07,3.08-.42,4.48a5.49,5.49,0,0,0,3.09,2.43,34,34,0,0,0,27.65-.59,5.62,5.62,0,0,0,2.31-1.7,4.08,4.08,0,0,0-.68-4.9"/><path class="cls-4" d="M255.7,58.12c-.73,2-1.23,4.2.08,6.05,1.16,1.63,3.24,2.37,5,3a34.67,34.67,0,0,0,13.27,2,35.53,35.53,0,0,0,13-3c1.74-.78,3.55-1.76,4.09-3.75a5.78,5.78,0,0,0-1.43-5.18c-1.05-1.22-2.81.55-1.77,1.77s1.26,2.92-.11,3.93a16.44,16.44,0,0,1-4.52,2,33.33,33.33,0,0,1-10.1,1.75,32.92,32.92,0,0,1-10.15-1.44,17.63,17.63,0,0,1-4.38-1.79c-1.82-1.18-1.25-3-.61-4.74.57-1.51-1.85-2.16-2.41-.67Z"/><path class="cls-9" d="M241.41,9.1c-.15,4.45-1.92,8.66-3.4,12.87a105.78,105.78,0,0,0-5.9,39.28c.11,2.67.5,5.68,2.64,7.29,2.35,1.77,5.76,1,8.3-.49a18,18,0,0,0,5.13-4.51c-.66-.57-1.67-.23-2.54-.17a4.59,4.59,0,0,1-3.71-1.76,9.5,9.5,0,0,1-1.78-3.85c-2.07-8.17.88-16.68,3.78-24.6l6.22-16.94c.68-1.84,1.3-4.08.07-5.61a4.58,4.58,0,0,0-3.56-1.39,34.53,34.53,0,0,1-3.94,0"/><path class="cls-4" d="M240.16,9.1c-.26,5.68-2.95,11-4.61,16.33a108,108,0,0,0-4.75,33.7c.08,4.12.22,9.66,4.87,11.3,5,1.77,10.47-2.31,13.39-6a1.27,1.27,0,0,0-.25-2,3.57,3.57,0,0,0-2.56-.42,3.46,3.46,0,0,1-3-.9c-1.66-1.57-2.13-4.35-2.36-6.52-.51-4.7.45-9.39,1.8-13.88,1.42-4.7,3.23-9.28,4.92-13.89l2.61-7.1a28.39,28.39,0,0,0,1.93-6.09,4.72,4.72,0,0,0-2.36-5c-2.21-1.14-4.67-.42-7-.66-1.6-.16-1.59,2.35,0,2.5,1.85.19,4.43-.63,6.08.49s.53,3.84,0,5.35q-2.52,6.87-5.05,13.73c-3.1,8.46-6.8,17.5-5.08,26.67.43,2.26,1.18,4.71,2.94,6.3a6.07,6.07,0,0,0,2.58,1.42,4.89,4.89,0,0,0,1.66.13c.56,0,1.21-.3,1.72,0l-.26-2c-2.26,2.86-6.93,7-11,5.36-1.92-.78-2.57-2.92-2.82-4.81a53,53,0,0,1-.23-7.13,104.59,104.59,0,0,1,4.89-30.66c1.71-5.38,4.23-10.6,4.49-16.32.08-1.61-2.42-1.61-2.5,0Z"/><path class="cls-10" d="M349.51,8.53a38.88,38.88,0,0,0-3.05,8.27C342,33.08,341.56,50.13,341.11,67a1.32,1.32,0,0,0,.33,1.12,1.26,1.26,0,0,0,.77.18l4.29.11a5.05,5.05,0,0,0,3.06-.56C351,66.85,351,64.77,351,63a35.46,35.46,0,0,1,1.87-11.23c.15-.43.42-.95.88-.92a1.09,1.09,0,0,1,.68.46c4,4.75,6.88,10.46,11,15.12A6,6,0,0,0,368,68.38a6.52,6.52,0,0,0,2.29.16l5-.23a3.4,3.4,0,0,0,2.08-.58c1.13-1,.46-2.84-.43-4.06-4.66-6.42-13.08-9.82-16.38-17-.57-1.24-.93-2.79-.15-3.91a4.27,4.27,0,0,1,1.25-1.06c4.66-3,10.24-4.81,13.77-9.07a5.86,5.86,0,0,0,1.66-4.53A4.53,4.53,0,0,0,373,24.59a7.72,7.72,0,0,0-5.32,1.75,28.79,28.79,0,0,0-4,4.09A78.43,78.43,0,0,1,354.93,39c-1.12-4.51-.24-9.27,1-13.74s3-8.85,3.52-13.46a2.34,2.34,0,0,0-.16-1.46A2.26,2.26,0,0,0,358,9.44a16.15,16.15,0,0,0-6.36-.81"/><path class="cls-4" d="M348.43,7.9a49,49,0,0,0-3.78,10.87c-.95,3.85-1.7,7.76-2.29,11.68a221.93,221.93,0,0,0-2.09,23.88c-.17,4-.28,8-.39,12,0,1.52.16,3,1.93,3.23a29.21,29.21,0,0,0,5.69.14c3.53-.16,4.72-2.79,4.78-6a45.34,45.34,0,0,1,.37-5.58c.14-.9.32-1.8.52-2.69a23,23,0,0,0,.8-2.86c0-.3.38-.48-.12-.39s-.12.12,0,.38a8,8,0,0,0,.82,1c.6.77,1.18,1.57,1.74,2.37,1,1.49,2,3,3,4.52,1.87,2.79,3.85,6.15,6.54,8.22,1.6,1.23,3.38,1.16,5.31,1.07s3.85.1,5.58-.41c3.32-1,2.38-4.65.8-6.72-3.64-4.78-9-7.74-13-12.13a17.86,17.86,0,0,1-2.65-3.7,6.36,6.36,0,0,1-.79-2.14c-.14-1.09.52-1.58,1.37-2.12,2.75-1.71,5.73-3,8.49-4.72s5.47-3.79,6.74-6.72A5.37,5.37,0,0,0,375,23.83c-3.17-1.38-6.59.18-9,2.33-2.77,2.48-5,5.55-7.7,8.14-1.36,1.31-2.78,2.56-4.23,3.78l2.09.55c-1.61-6.9,1.35-13.67,3.22-20.2a46.33,46.33,0,0,0,1.15-5c.22-1.33.6-2.89-.28-4.05S358,8.07,356.8,7.79a18.12,18.12,0,0,0-5.14-.41c-1.6.09-1.61,2.59,0,2.5a15.48,15.48,0,0,1,4.7.38c.47.11,1.47.21,1.77.61s0,1.6-.08,2.16a68,68,0,0,1-2.34,8.75c-1.77,5.67-3.37,11.57-2,17.51a1.26,1.26,0,0,0,2.09.55,78.81,78.81,0,0,0,7.55-7.18c2.2-2.39,4.31-5.66,7.59-6.63a4.18,4.18,0,0,1,3.95.65c1.39,1.18,1.08,2.88.2,4.27-1.61,2.53-4.37,4.24-6.93,5.67s-5.47,2.61-7.82,4.44c-2.53,1.95-1.59,5.07-.23,7.46,2.73,4.78,7.49,7.83,11.54,11.38a38.28,38.28,0,0,1,2.82,2.73c.85.93,2.12,2.17,2.22,3.49s-3,1-3.89,1.06c-1.74.08-3.95.6-5.4-.57-2.47-2-4.28-5.16-6-7.77a87.91,87.91,0,0,0-5.75-8.06c-.75-.89-1.85-1.59-2.95-.8s-1.43,2.81-1.76,4.11A46.13,46.13,0,0,0,349.78,64c0,1.27-.19,2.69-1.63,3a9.83,9.83,0,0,1-2.6,0,12,12,0,0,0-2.86-.07l-.48,0c.16.37.21.35.15-.05a4.28,4.28,0,0,0,0-1.19c0-.87,0-1.75.07-2.63q.07-2.87.18-5.73A243.48,243.48,0,0,1,344.5,33c.56-4.09,1.28-8.15,2.23-12.17a49.2,49.2,0,0,1,3.86-11.67c.74-1.43-1.42-2.69-2.16-1.26Z"/><path class="cls-11" d="M416.77,28.83c0-.54-.66-.78-1.2-.85a92.48,92.48,0,0,0-15.95-.78,19.7,19.7,0,0,0-5.52.79,10.85,10.85,0,0,0-3.37,18.7c3.45,2.8,8.63,3.55,10.9,7.36a7.93,7.93,0,0,1,.92,5.19,2.09,2.09,0,0,1-.4,1.08,2.22,2.22,0,0,1-1.73.52,17.28,17.28,0,0,1-13-6.1,23.22,23.22,0,0,1-4.51,10.47A24,24,0,0,0,405,68.76a13.36,13.36,0,0,0,5.71-3.54,15,15,0,0,0,2.45-4.28c1.46-3.52,2.47-7.51,1.18-11.09-1.59-4.42-6.13-6.94-10.38-8.94-2.2-1-4.65-2.29-5.39-4.61a1.12,1.12,0,0,1,0-.95,1.18,1.18,0,0,1,.68-.42,8.47,8.47,0,0,1,5.92.9,44.24,44.24,0,0,0,5.51,2.65c1.6.51,3.58.53,4.72-.7a4.83,4.83,0,0,0,1-2.32,15,15,0,0,0,.21-4.92"/><path class="cls-4" d="M418,28.5a2.32,2.32,0,0,0-2.07-1.72,46.61,46.61,0,0,0-5.15-.57,90.77,90.77,0,0,0-10.17-.29c-3,.08-6.07.25-8.76,1.72a12.11,12.11,0,0,0-2.54,19.44,24.75,24.75,0,0,0,6.24,3.76c2.16,1.06,4.5,2.3,5.44,4.66.35.89,1,3.76-.22,4.09s-3.32-.26-4.6-.63a16.34,16.34,0,0,1-7.84-5.1,1.25,1.25,0,0,0-2.09.55,23,23,0,0,1-4.38,10.17,1.28,1.28,0,0,0,.44,1.71,25.32,25.32,0,0,0,18.11,4.79,20.51,20.51,0,0,0,8.83-3c2.79-1.84,4.3-4.61,5.46-7.66,1.27-3.29,2.06-7.06,1-10.52a13.43,13.43,0,0,0-5.05-6.65c-2.36-1.77-5.05-2.85-7.63-4.24a11.18,11.18,0,0,1-1.81-1.17,14.41,14.41,0,0,1-1.28-1.57l-.13-.34c-.31.24-.22.26.24.07.33,0,.63-.08.95-.08a8.4,8.4,0,0,1,3.19.77c3.15,1.36,6.43,4.16,10.1,3.14s4-6.11,3.64-9.32c-.16-1.58-2.66-1.6-2.5,0a14,14,0,0,1-.25,5c-.45,1.77-1.69,2.3-3.41,2-3.2-.62-5.71-3.11-8.92-3.79-2.33-.49-6.6-.15-5.34,3.28,1,2.57,3.53,3.93,5.85,5,5.11,2.43,10.68,5.66,10.33,12.12a20,20,0,0,1-3.05,9.16c-1.73,2.73-4.8,4.09-7.83,4.85a23,23,0,0,1-19.22-4l.44,1.71a24.38,24.38,0,0,0,4.64-10.77l-2.09.55a18.39,18.39,0,0,0,14.05,6.47,3.08,3.08,0,0,0,2.75-1.31,6.58,6.58,0,0,0,.49-4,9,9,0,0,0-3.8-6.2c-3.95-2.92-9.29-3.65-11.32-8.69a9.68,9.68,0,0,1,5.4-12.55c3.3-1.29,7.36-1,10.85-.91,1.93,0,3.87.14,5.8.3,1,.08,1.94.17,2.9.28.32,0,.64.07,1,.12s.6.07.9.13.31.1.05-.08c.31,1.58,2.72.91,2.41-.66Z"/><path class="cls-12" d="M336.56,29.7c-7-1.22-14.42-2.38-20.85.55a20.63,20.63,0,0,0-9.42,9.25,30,30,0,0,0-3.17,12.94c-.14,4.14.48,8.53,3.05,11.79a15.5,15.5,0,0,0,9,5.14,46.73,46.73,0,0,0,10.51.64,3.21,3.21,0,0,0,1.6-.31c.95-.57,1-1.89,1-3-.16-4.13-.51-8.49,1.38-12.16-1.79,2.27-4.86,3.12-7.75,3.36a7,7,0,0,1-2.33-.1,6,6,0,0,1-2.19-1.16,11.33,11.33,0,0,1,7.88-20.23,7.84,7.84,0,0,1,4.26,1.52,9.74,9.74,0,0,1,2.45,3.2,1.4,1.4,0,0,0,.56.68,1.3,1.3,0,0,0,1.27-.33c3.17-2.38,4-6.79,3.92-10.77"/><path class="cls-4" d="M336.89,28.49c-6.93-1.21-14.4-2.43-21.12.38-6,2.52-10.21,7.94-12.26,14-2.09,6.21-2.78,14.4.48,20.34,3.42,6.22,10.79,7.92,17.35,8.07,1.12,0,2.24,0,3.36,0a7.25,7.25,0,0,0,2.82-.33c1.57-.68,2-2.32,2-3.9,0-4-.63-8.12,1.21-11.87.59-1.19-1-2.67-2-1.52a8.79,8.79,0,0,1-5.5,2.83,8.7,8.7,0,0,1-3.37.12,6.2,6.2,0,0,1-2.8-1.91,10.06,10.06,0,0,1,7.25-17.06,6.54,6.54,0,0,1,5.93,3.07,5.89,5.89,0,0,0,1.5,2.1,2.37,2.37,0,0,0,2.65-.24c3.75-2.49,4.62-7.69,4.54-11.85a1.25,1.25,0,0,0-2.5,0,15.83,15.83,0,0,1-1.07,6.68,7.85,7.85,0,0,1-1.68,2.51,3.81,3.81,0,0,0-.52.47l-.33.23c.32.24.41.25.25,0,0-.38-.78-1.37-1-1.7-2.83-4-8.13-4.62-12.46-2.81a12.57,12.57,0,0,0-7.69,9.69,13,13,0,0,0,4.28,11.49c2.27,1.92,4.67,2.09,7.52,1.62a11,11,0,0,0,6.79-3.5l-2-1.51a19.41,19.41,0,0,0-1.68,8.91c0,1.4.14,2.81.13,4.22,0,.45.05,1.27-.38,1.58-.61.43-2.15.16-2.89.16-5.93,0-13.24-.44-17-5.83-3.4-4.91-2.85-12.23-1.37-17.71s4.86-10.75,10.07-13.48c6.36-3.35,14-2,20.75-.86,1.57.28,2.25-2.13.66-2.41Z"/><path class="cls-7" d="M263.53,31.22c7.33-3.67,17-2.41,22.81,3.34a13.55,13.55,0,0,1,2.73,3.69c1.49,3.08,1.36,6.66,1.19,10.08s-.52,7.32-2.92,9.88a13.59,13.59,0,0,1-4.94,3,33.75,33.75,0,0,1-10.18,2.63A18,18,0,0,1,262,61.78a16.07,16.07,0,0,1-7.75-13.24,19.54,19.54,0,0,1,6-14.38"/><path class="cls-4" d="M264.16,32.3a19.44,19.44,0,0,1,17.5.36,14.23,14.23,0,0,1,6.55,6.7c1.31,3.26,1,7.07.7,10.48-.24,3.25-.91,6.67-3.79,8.61a28.2,28.2,0,0,1-10.06,3.74c-6.8,1.37-14-.47-17.58-6.81-3.81-6.78-1.63-15,3.66-20.34a1.25,1.25,0,0,0-1.77-1.76c-5.36,5.38-8,13.57-5.2,20.87a17.09,17.09,0,0,0,6.44,8.22A18.62,18.62,0,0,0,272,65.1a34.82,34.82,0,0,0,12.55-3.47A11.22,11.22,0,0,0,291,53.22a35.68,35.68,0,0,0,.36-11.66,14.71,14.71,0,0,0-6-9.5,21.84,21.84,0,0,0-22.43-1.92c-1.45.71-.18,2.87,1.26,2.16Z"/><path class="cls-7" d="M291.54,41.45a2.63,2.63,0,0,1,3.29,1,5,5,0,0,1,.5,2.3,10.7,10.7,0,0,1-.4,4.11,4.12,4.12,0,0,1-2.88,2.75"/><path class="cls-4" d="M292.17,42.53c-.14.06.11,0,.14,0s.29,0,.13,0h.33l.13,0a1.3,1.3,0,0,1,.81.49c-.1-.12.06.12.08.15a.81.81,0,0,1,.1.24,3.09,3.09,0,0,1,.15.67,14.88,14.88,0,0,1,.07,1.77,6.81,6.81,0,0,1-.54,3,2.74,2.74,0,0,1-1.85,1.56,1.26,1.26,0,0,0-.88,1.53,1.29,1.29,0,0,0,1.54.88A5.19,5.19,0,0,0,295.77,50a9.75,9.75,0,0,0,.83-4.75c0-1.54-.15-3.24-1.41-4.33a3.94,3.94,0,0,0-4.28-.57,1.25,1.25,0,0,0-.45,1.71,1.28,1.28,0,0,0,1.71.45Z"/><path class="cls-13" d="M259.74,41.89l-.4,9.37a4,4,0,0,0,.11,1.43,3.69,3.69,0,0,0,1.42,1.67,21.56,21.56,0,0,0,21.24,2.52c1.41-.62,2.87-1.52,3.37-3a6.49,6.49,0,0,0,.23-2.11V40.51a3,3,0,0,0-.26-1.52,2.84,2.84,0,0,0-1.05-1,22.24,22.24,0,0,0-22.46-.66c-1.08.62-2.22,1.52-2.29,2.76"/><path class="cls-4" d="M258.49,41.89l-.23,5.43c-.07,1.67-.46,3.7-.1,5.35.56,2.55,3.9,4.15,6.06,5.12a23,23,0,0,0,16.78.86c2.4-.83,5.15-2.11,5.8-4.83a22.3,22.3,0,0,0,.16-5V43c0-1.36.26-3-.3-4.3s-2.11-2-3.33-2.67a24.42,24.42,0,0,0-8.13-2.43,23.35,23.35,0,0,0-9.65.89c-2.54.8-6.68,2.28-7.11,5.36-.22,1.57,2.19,2.26,2.41.67.29-2.07,3.67-3.09,5.37-3.62a20.81,20.81,0,0,1,7-1,21.85,21.85,0,0,1,7,1.41,20.23,20.23,0,0,1,3.07,1.49c.63.38,1.05.58,1.19,1.31a13.17,13.17,0,0,1,0,2.35q0,4.43,0,8.83c0,1.16.07,2.28-.81,3.17a8.26,8.26,0,0,1-3.13,1.71,20.66,20.66,0,0,1-13.73,0,19.35,19.35,0,0,1-3.53-1.68c-1-.6-2.6-1.38-2.68-2.67a44,44,0,0,1,.19-4.73l.22-5.18c.07-1.61-2.43-1.6-2.5,0Z"/><path class="cls-4" d="M265.19,43.27a10.65,10.65,0,0,1,7.38-2.65,31.78,31.78,0,0,1,4.67.32,9.52,9.52,0,0,1,4,1c1.35.88,2.61-1.28,1.26-2.16a11.08,11.08,0,0,0-4.74-1.23,31.73,31.73,0,0,0-5.5-.38,13.09,13.09,0,0,0-8.82,3.38c-1.16,1.12.61,2.89,1.77,1.76Z"/><path class="cls-5" d="M170.85,28.58l-10-.08Z"/><line class="cls-14" x1="165.72" y1="28.54" x2="160.83" y2="28.5"/><path class="cls-15" d="M174.39,50.11a10.43,10.43,0,0,1,3.23,5.46,25.11,25.11,0,0,1,.6,6.42,6.6,6.6,0,0,1-.56,3.12,19.4,19.4,0,0,0-1.93-4.6A7.33,7.33,0,0,0,172,57.35"/><path class="cls-4" d="M173.68,50.81a10.33,10.33,0,0,1,3.22,6.13,23.37,23.37,0,0,1,.31,3.92,8.19,8.19,0,0,1-.42,3.75l1.83.24c-1.09-3.5-2.67-7.16-6.39-8.46-1.22-.43-1.74,1.5-.53,1.92,3,1,4.14,4.34,5,7.07a1,1,0,0,0,1.83.24,9.09,9.09,0,0,0,.7-4.2,29,29,0,0,0-.35-4.74,12.13,12.13,0,0,0-3.78-7.28c-1-.84-2.39.57-1.41,1.41Z"/><path class="cls-15" d="M156.73,50.15c-1.41.29-2.12,1.86-2.49,3.25a26.71,26.71,0,0,0-.43,11.93A8.91,8.91,0,0,1,158.93,58"/><path class="cls-4" d="M156.46,49.19c-2.77.7-3.37,4.22-3.75,6.6a28.79,28.79,0,0,0,.13,9.8c.22,1.18,1.87.79,2-.26a8,8,0,0,1,4.62-6.48c1.17-.55.15-2.27-1-1.73a10,10,0,0,0-5.61,8.21l2-.27a26,26,0,0,1-.22-8.16,21.86,21.86,0,0,1,.8-3.74c.27-.84.7-1.81,1.64-2a1,1,0,0,0-.53-1.93Z"/><path class="cls-4" d="M161.42,29.26q4.44-.07,8.9.07c1.29,0,1.28-2,0-2q-4.45-.15-8.9-.07a1,1,0,0,0,0,2Z"/><path class="cls-16" d="M160.45,60.79v1.87a.39.39,0,0,0,.49.46l2.12,0,7.31-.22a.5.5,0,0,0,.42-.14.4.4,0,0,0,.06-.3,3.68,3.68,0,0,0-.62-1.92"/><path class="cls-4" d="M159.45,60.79a9.45,9.45,0,0,0,.06,2.38c.26.89,1.14,1,1.91.94,1.56,0,3.13-.09,4.69-.13l2.33-.07a12.8,12.8,0,0,0,2.32-.1c1.78-.38,1-2.78.34-3.83s-2.42-.08-1.73,1c.22.34.62,1,.46,1.45l.26-.44-.08.08.44-.26a4.27,4.27,0,0,1-1,.06l-1.22,0L165.7,62l-2.44.07-1.16,0-.68,0h-.29q-.34,0-.09,0l.36.36c.14.25,0,.06,0-.15V60.79a1,1,0,0,0-2,0Z"/><path class="cls-17" d="M161.34,64.28a13.29,13.29,0,0,1-.24,3.88,1.49,1.49,0,0,1,.87,1.65,4.23,4.23,0,0,1-.87,1.81,4.73,4.73,0,0,0,2-.1,4.28,4.28,0,0,1-.36,3.12,5.45,5.45,0,0,1,1.71.79,1.86,1.86,0,0,1,.79,1.63,12.56,12.56,0,0,1,.51-3.1c.14-.46.59-1,1-.74a.67.67,0,0,1,.22.3c.24.56.28,1.2.57,1.75s1,1,1.5.67a3.11,3.11,0,0,0-.16-1.84,3.79,3.79,0,0,1,1.2-3.56l2.13.86a2.82,2.82,0,0,0-.1-2.7,17.55,17.55,0,0,0-1.66-2.29,4,4,0,0,1-1-2.58"/><path class="cls-4" d="M160.34,64.28a12.48,12.48,0,0,1-.21,3.61,1,1,0,0,0,.7,1.23c.63.26-.42,1.74-.59,2-.48.7.18,1.42.86,1.5a6,6,0,0,0,2.24-.14l-1.23-.69a3.33,3.33,0,0,1-.25,2.34,1,1,0,0,0,.59,1.47c.7.23,1.83.54,1.77,1.46h2a11.56,11.56,0,0,1,.21-1.77,7.68,7.68,0,0,1,.19-.83,1.15,1.15,0,0,1,.11-.31q.14-.18-.15,0l-.51-.13a10.7,10.7,0,0,1,.37,1.31,2.65,2.65,0,0,0,.85,1.21c.73.58,2.14.81,2.63-.21s-.1-1.86-.15-2.81a2.85,2.85,0,0,1,1-2.27l-1,.25,2.13.86A1,1,0,0,0,173,71.9a4.11,4.11,0,0,0-.43-4.26c-.78-1.18-2.19-2.29-2.16-3.81a1,1,0,0,0-2,0,6,6,0,0,0,1.67,3.81c.66.84,1.81,2.11,1.2,3.25l1.12-.46-2.13-.85a1,1,0,0,0-1,.25,4.81,4.81,0,0,0-1.49,4.35c.08.49.36,1,.2,1.5l.46-.6c.19-.08,0-.06-.08-.21a3.86,3.86,0,0,1-.2-.51,8.62,8.62,0,0,0-.38-1.22,1.45,1.45,0,0,0-2-.82,2.71,2.71,0,0,0-1.18,1.84,14.28,14.28,0,0,0-.41,2.9c-.05,1.29,1.93,1.28,2,0,.11-1.93-1.66-2.87-3.23-3.39l.59,1.47a5.42,5.42,0,0,0,.46-3.89,1,1,0,0,0-1.23-.69,4.68,4.68,0,0,1-1.71.06l.87,1.51a4.36,4.36,0,0,0,1-2.83,2.44,2.44,0,0,0-1.61-2.1l.7,1.23a14.45,14.45,0,0,0,.28-4.15c-.11-1.27-2.11-1.28-2,0Z"/><path class="cls-15" d="M166.9,52.15A2.61,2.61,0,0,0,164,53.58a6,6,0,0,0-.42,3.45c.39,3.44,1.77,6.72,2.11,10.16a27,27,0,0,1,.91-5.44c.7-2.26,2-4.4,2-6.77a3.36,3.36,0,0,0-1.48-3"/><path class="cls-4" d="M167.17,51.19a3.52,3.52,0,0,0-3.61,1.24,6,6,0,0,0-1,4.48c.36,3.5,1.75,6.79,2.12,10.28a1,1,0,0,0,2,0,28.11,28.11,0,0,1,.72-4.65c.39-1.45,1.06-2.82,1.55-4.24.82-2.37,1.12-5.66-1.36-7.16a1,1,0,0,0-1,1.73c2.08,1.25.53,4.75-.12,6.38a22.62,22.62,0,0,0-1.24,3.84,40.34,40.34,0,0,0-.54,4.1h2c-.3-2.85-1.22-5.55-1.8-8.35a10.09,10.09,0,0,1-.3-3.94c.19-.95,1-2.08,2.07-1.78a1,1,0,0,0,.53-1.93Z"/><path class="cls-4" d="M193.21,12.71a1.9,1.9,0,0,1,.37-.2l-.3.13a2.46,2.46,0,0,1,.53-.15l-.33,0a1.7,1.7,0,0,1,.39,0,1,1,0,0,0,.48-.11.9.9,0,0,0,.4-.26.87.87,0,0,0,.26-.4.89.89,0,0,0,.11-.48l0-.34a1.25,1.25,0,0,0-.33-.55l-.25-.19a1.15,1.15,0,0,0-.63-.17h-.35a5,5,0,0,0-.66.11,4,4,0,0,0-.6.24,1.87,1.87,0,0,0-.31.17,1,1,0,0,0-.35.32.84.84,0,0,0-.22.43.94.94,0,0,0,0,.5,1,1,0,0,0,.15.46,1.28,1.28,0,0,0,.75.58l.33,0a1.24,1.24,0,0,0,.63-.17Z"/><path class="cls-4" d="M202.11,18.73c-.21.14-.42.3-.62.46a3.06,3.06,0,0,0-.37.35,4.45,4.45,0,0,0-.43.61,3.78,3.78,0,0,0-.17.35c-.05.13-.1.25-.14.38a.94.94,0,0,0,0,.5,1,1,0,0,0,.15.46.84.84,0,0,0,.32.35,1,1,0,0,0,.42.23l.34,0a1.24,1.24,0,0,0,1.2-.92c0-.07.05-.15.08-.23l-.12.3a1.94,1.94,0,0,1,.28-.48l-.2.26a2.23,2.23,0,0,1,.46-.46l-.25.2a2.62,2.62,0,0,1,.34-.24,1,1,0,0,0,.35-.33,1.11,1.11,0,0,0,.24-.92.77.77,0,0,0-.15-.46,1.23,1.23,0,0,0-.74-.58l-.33,0a1.2,1.2,0,0,0-.64.17Z"/><path class="cls-4" d="M198.72,39.85a7.26,7.26,0,0,0-.63.46,2,2,0,0,0-.36.35,4.19,4.19,0,0,0-.44.6c-.06.12-.11.24-.16.36A2.5,2.5,0,0,0,197,42a.94.94,0,0,0,0,.5,1,1,0,0,0,.15.46.9.9,0,0,0,.32.35.94.94,0,0,0,.43.23l.33,0a1.29,1.29,0,0,0,.63-.17,1.34,1.34,0,0,0,.57-.75l.08-.23-.12.3a2.31,2.31,0,0,1,.28-.48l-.2.25a2.79,2.79,0,0,1,.46-.45l-.25.19L200,42a.89.89,0,0,0,.35-.32,1.11,1.11,0,0,0,.24-.92.89.89,0,0,0-.14-.47,1.3,1.3,0,0,0-.75-.57l-.33,0a1.25,1.25,0,0,0-.63.18Z"/><path class="cls-4" d="M349.7,9.83a5.55,5.55,0,0,1,1-.21l-.34,0a7.84,7.84,0,0,1,1.18-.06,1.27,1.27,0,0,0,.89-.36,1.27,1.27,0,0,0,0-1.77,1.33,1.33,0,0,0-.89-.37,7.58,7.58,0,0,0-1.16.06,7.85,7.85,0,0,0-1.35.26,1.36,1.36,0,0,0-.75.58,1.28,1.28,0,0,0-.12,1,1.24,1.24,0,0,0,1.54.87Z"/><path class="cls-18" d="M159.76,2.48A11,11,0,0,1,163.55.64a12.91,12.91,0,0,1,2.21-.37,7.57,7.57,0,0,1,2.6.18,9.13,9.13,0,0,1,3.07,1.75A8.32,8.32,0,0,1,173,3.63a8.59,8.59,0,0,1,1.43,5.22,5.92,5.92,0,0,1-.63,3.28c-.63,1-1.76,1.57-2.53,2.47a4.4,4.4,0,0,1-.64.72,2.7,2.7,0,0,1-.81.37c-2.26.76-4.81,1.19-7,.17a9.61,9.61,0,0,1-1.64-1,11.79,11.79,0,0,1-2.77-2.64,7,7,0,0,1-1.19-5,7,7,0,0,1,2.54-4.43"/><path class="cls-4" d="M159.88,2.7c2.62-1.92,6.69-3.13,9.71-1.46a9,9,0,0,1,3.74,3.44,10.35,10.35,0,0,1,.81,4.74,5.08,5.08,0,0,1-.53,2.46A6.35,6.35,0,0,1,172,13.55a18.24,18.24,0,0,0-1.3,1.34,5.45,5.45,0,0,1-2.63,1,8,8,0,0,1-5.1-.28,12.33,12.33,0,0,1-3.82-2.94A6.8,6.8,0,0,1,159.93,3c.24-.2-.11-.56-.36-.35a7.3,7.3,0,0,0-1.82,9,11.4,11.4,0,0,0,4,3.9,7.42,7.42,0,0,0,5,1.14c1.63-.17,3.57-.49,4.65-1.79s2.64-2,3.11-3.7A11.3,11.3,0,0,0,174.33,6a7.22,7.22,0,0,0-3-4.23A7.77,7.77,0,0,0,165.45.05a11.72,11.72,0,0,0-5.82,2.22c-.26.19,0,.62.25.43Z"/><path class="cls-4" d="M168.51,4.14l1,1.13a1,1,0,0,0,.4.26,1.2,1.2,0,0,0,1,0,1,1,0,0,0,.41-.26l.19-.26a1.24,1.24,0,0,0,.17-.63l0-.33a1.33,1.33,0,0,0-.32-.55l-1-1.13a1,1,0,0,0-.4-.26,1,1,0,0,0-.48-.1,1,1,0,0,0-.49.1,1,1,0,0,0-.4.26l-.19.26a1.15,1.15,0,0,0-.17.63l0,.33a1.33,1.33,0,0,0,.32.55Z"/><path class="cls-4" d="M167,5.45a8,8,0,0,0,1.3.1,1,1,0,0,0,.48-.11,1,1,0,0,0,.4-.26,1,1,0,0,0,.26-.4,1,1,0,0,0,.11-.48L169.51,4a1.33,1.33,0,0,0-.32-.55l-.25-.19a1.19,1.19,0,0,0-.63-.17,7.25,7.25,0,0,1-.93,0l.33,0h0a1,1,0,0,0-.5,0,1,1,0,0,0-.47.15,1.07,1.07,0,0,0-.35.32,1,1,0,0,0-.22.43l0,.33a1.25,1.25,0,0,0,.18.63l.19.26a1.33,1.33,0,0,0,.55.32Z"/><path class="cls-4" d="M161.1,3.15l.06,0s0,0,0,0l0,0a.73.73,0,0,0,.08.09h0l0,0,0,.06,0,.05s0,0,0,0,0,0,0,0l0,.11a.19.19,0,0,1,0,.07s0-.06,0,0v0a.49.49,0,0,1,0,.12h0s0,0,0,0,0,0,0,.06a.25.25,0,0,0,.17.31.26.26,0,0,0,.31-.17,1.14,1.14,0,0,0-.48-1.24.26.26,0,0,0-.34.09.25.25,0,0,0,.08.34Z"/><path class="cls-2" d="M164.3.83a2.9,2.9,0,0,0-1.6,1.9,5.57,5.57,0,0,0,1.82-.15L163.16,4a.44.44,0,0,0-.13.2c0,.09,0,.18,0,.28,0,.29-.38.37-.65.48a1.14,1.14,0,0,0-.67.82.73.73,0,0,0,0,.46c.19.42.78.42,1.24.36a1.23,1.23,0,0,1,.9-1.36A1,1,0,0,1,165,6.34a1.86,1.86,0,0,0,1-1.43,1,1,0,0,0,1.06,1c.43,0,.83-.32,1.25-.22a.87.87,0,0,1,.45,1.22,1.49,1.49,0,0,1-1.25.7,5,5,0,0,1-2-.43,4.12,4.12,0,0,0-2-.32,1.5,1.5,0,0,0-1.32,1.32,1.47,1.47,0,0,1,0,.42c-.08.3-.42.43-.6.68a1.38,1.38,0,0,0-.19.92,1.48,1.48,0,0,0,.27,1,1.64,1.64,0,0,0,1.43.28,10.05,10.05,0,0,1,1.9,0,2.62,2.62,0,0,0,1.58,1.16,3.38,3.38,0,0,0,.67,2.49,1.69,1.69,0,0,0,.71.59,1.29,1.29,0,0,0,1.58-.6c.4-.77,0-1.8.43-2.54s1.87-.94,2.28-1.84a.28.28,0,0,0,0-.25.29.29,0,0,0-.18-.1,3.5,3.5,0,0,1-2.31-2.9,1.91,1.91,0,0,0,.84,1.39,1.44,1.44,0,0,0,1.59,0,1,1,0,0,0,.36-.56c.1-.7-.8-1.12-1-1.79a.36.36,0,0,1,0-.18c.06-.25.43-.18.67-.09a2.73,2.73,0,0,0,1.55.1.38.38,0,0,0,.2-.1.37.37,0,0,0,0-.18,3.75,3.75,0,0,0-1.26-2.54,16,16,0,0,0-2.49-2.15,6.75,6.75,0,0,0-1.56-.85,7.69,7.69,0,0,0-4.45.13"/><path class="cls-4" d="M164.17.61a3.3,3.3,0,0,0-1.71,2.05.25.25,0,0,0,.24.32,6.69,6.69,0,0,0,1.89-.16l-.24-.42a8.16,8.16,0,0,0-1.56,1.77c0,.08,0,.2,0,.27s-.32.24-.46.32a1.79,1.79,0,0,0-.63.5,1.11,1.11,0,0,0,0,1.31,1.51,1.51,0,0,0,1.35.32.25.25,0,0,0,.25-.25,1.09,1.09,0,0,1,.31-.91.71.71,0,0,1,1.18.61.26.26,0,0,0,.38.21A2.19,2.19,0,0,0,166.26,5l-.49-.06a1.32,1.32,0,0,0,1.11,1.23c.53.07,1.47-.61,1.73.17.31,1-1.18,1.1-1.77,1-1.39-.25-3.89-1.66-4.72.36-.14.34,0,.75-.24,1.05s-.55.44-.64.93a1.9,1.9,0,0,0,.52,1.93c.77.51,1.91,0,2.76.16.49.06.58.33.95.63a3.1,3.1,0,0,0,1.1.56l-.18-.24c-.11,1.19.39,3.13,1.79,3.39a1.57,1.57,0,0,0,1.48-.56,3.32,3.32,0,0,0,.4-2c.07-1.06.8-1.29,1.59-1.76.36-.22.88-.58.94-1s-.73-.65-1.1-.89a3.33,3.33,0,0,1-1.42-2.36l-.48.13a2,2,0,0,0,1.51,1.75,1.44,1.44,0,0,0,1.76-.95,1.18,1.18,0,0,0-.19-.82c-.13-.2-1-1-.64-1.12.09,0,.52.16.66.18a2.7,2.7,0,0,0,.85,0,.84.84,0,0,0,.7-.33c.39-.69-.41-1.9-.8-2.4a13.77,13.77,0,0,0-2.58-2.42A6.54,6.54,0,0,0,167.78.07a9.52,9.52,0,0,0-3.56.37c-.32.07-.18.56.13.48,1.87-.46,3.69-.66,5.39.41A14.74,14.74,0,0,1,172,3.14a6,6,0,0,1,1.62,2.12,1.25,1.25,0,0,1,.11.39c.1.2,0,.32-.22.37a1,1,0,0,1-1,.09,2,2,0,0,0-.8-.17.48.48,0,0,0-.41.64c.1.54.66.79.87,1.25.45,1-.83,1.25-1.43.88a1.73,1.73,0,0,1-.73-1.24c-.06-.32-.52-.18-.48.13a3.73,3.73,0,0,0,1.47,2.53c.23.17.55.26.75.44s.09.41-.19.62-.8.41-1.17.67c-.88.6-.85,1.41-.91,2.38-.07,1.36-1.37,1.78-2.15.61a3.27,3.27,0,0,1-.5-2.17.25.25,0,0,0-.18-.24,2.73,2.73,0,0,1-.76-.34c-.33-.22-.38-.46-.67-.71s-.36-.14-.63-.15c-1-.06-2.86.45-2.94-.94a1.64,1.64,0,0,1,.24-1c.1-.15.29-.23.4-.38s.11-.45.16-.76c.23-1.49,2-1.09,3-.75s3.13.94,3.59-.61a1.16,1.16,0,0,0-.35-1.2c-.72-.58-2.29.69-2.46-.7,0-.26-.44-.37-.49-.07a1.72,1.72,0,0,1-.89,1.28l.37.22A1.21,1.21,0,0,0,163.92,5a1.47,1.47,0,0,0-1.15,1.61l.25-.25a1.59,1.59,0,0,1-.65,0l-.15-1a2.08,2.08,0,0,1,.51-.27c.18-.1.39-.16.5-.35s.11-.53.3-.79a12.55,12.55,0,0,1,1.17-1.25.25.25,0,0,0-.24-.42,6.51,6.51,0,0,1-1.76.14l.24.32A2.81,2.81,0,0,1,164.43,1c.28-.14,0-.57-.26-.43Z"/><path class="cls-2" d="M162.07,5.58A1,1,0,0,0,162,6c0,.15,0,.33.15.39l.11,0c.08,0,.18,0,.22-.07a.3.3,0,0,0,0-.13,1.76,1.76,0,0,0,0-.46.54.54,0,0,0-.18-.36C162.22,5.31,162.11,5.49,162.07,5.58Z"/><path class="cls-2" d="M2.7,65.51a6.64,6.64,0,0,1,.07,1.41,7.54,7.54,0,0,0,.48,2.49,1.17,1.17,0,0,0,.29.48,1.14,1.14,0,0,0,.65.2,6.32,6.32,0,0,0,3-.16,4.75,4.75,0,0,0,1.34-.87,17.57,17.57,0,0,0,3.52-5,26.32,26.32,0,0,0,1.3-2.67c.35-.86.61-1.75.95-2.61,1.15-2.9,3.16-5.54,3.46-8.65a8.61,8.61,0,0,1-3.27.33.7.7,0,0,1-.35-.09c-.31-.21-.15-.68-.14-1a2.54,2.54,0,0,0-.9-1.63,12.32,12.32,0,0,1-3-6.59,1.34,1.34,0,0,0-.57.56,17.62,17.62,0,0,0-2.85,5.42c-.44,1.75-.35,3.62-1,5.32a24.64,24.64,0,0,1-1.53,3,15.69,15.69,0,0,0-.87,2,19.81,19.81,0,0,0-.63,2.12c-.18.72-.33,1.45-.46,2.18S2,63.17,1.83,63.9a.68.68,0,0,0,0,.4.61.61,0,0,0,.24.21,1.55,1.55,0,0,1,.56.77A1.55,1.55,0,0,1,2.7,65.51Z"/><path class="cls-2" d="M13.78,48.08a2,2,0,0,0,.68,1.06c.64.41,1.47,0,2.1-.4a35.06,35.06,0,0,0,5.66-4.57A2.07,2.07,0,0,0,23,42.89c0-.75-.73-1.31-1.47-1.46s-1.51,0-2.23-.22A3,3,0,0,1,17,38.32a1,1,0,0,1,.08-.44c.24-.45,1-.36,1.32,0a10.81,10.81,0,0,1,.85,1.27c.85,1.1,2.47,1.13,3.85,1s3-.21,3.95.76c.75.73,1,2,2,2.33.35.12.73.11,1.08.24,1.19.45,1.15,2.11,1.22,3.38A7.39,7.39,0,0,0,34,52a.68.68,0,0,0,.45.21.61.61,0,0,0,.36-.23c.92-1.07.21-2.73.56-4.09a4.46,4.46,0,0,1,.79-1.47,13.37,13.37,0,0,1,5-4.06A16.84,16.84,0,0,1,45,50.05a3.48,3.48,0,0,0,.8,2c.26.24.59.38.85.61.83.73.77,2,.63,3.1a2.49,2.49,0,0,0-1.75-1,2.22,2.22,0,0,0,.53,2.13,6.15,6.15,0,0,1,1.24,1.91c.31,1.09-.19,2.51.68,3.22a1.2,1.2,0,0,0,1.62-1.77l1,.08c.34-.67-.58-1.25-1.29-1.5s-1.51-1.1-1-1.61a1.79,1.79,0,0,0,.7-1.9c-.21-1.2-1.13-2.13-1.8-3.15s-1.1-2.45-.34-3.41a11.56,11.56,0,0,1,3.58,3.31,4.6,4.6,0,0,0,1.57-2.56c.21-2.2-2.72-3.83-2.36-6,.75-.87,2.4.8,3.21,0,.17-.18.24-.44.4-.63a2.93,2.93,0,0,1,.89-.61,3.35,3.35,0,0,0,1.43-2.5,10.17,10.17,0,0,0-.26-2.95,4.08,4.08,0,0,1-2.19-4.16,3.12,3.12,0,0,1-1.63,0,1.07,1.07,0,0,1-.74-1.28,2.43,2.43,0,0,0,.91-.64L51.91,32a2.31,2.31,0,0,1,3.54,1.65,1.76,1.76,0,0,0,.14,1c.34.51,1.24.19,1.39-.4a1.73,1.73,0,0,0-.64-1.61A12.21,12.21,0,0,1,55,31.36a1.38,1.38,0,0,1-.16-1.68l.71-.09a6.16,6.16,0,0,0-2.75-5.84,4,4,0,0,1-2.94-.46,2.07,2.07,0,0,1-.72-2.67,3.21,3.21,0,0,0,3.28.57,1,1,0,0,0-.6-1L52.88,20a7.12,7.12,0,0,0,4.55,4.34A2.09,2.09,0,0,0,55.91,22a8.19,8.19,0,0,1-1.2-.23c-.38-.16-.68-.62-.48-1s.5-.38.51-.66-.69-.65-.56-1c.2-.61,1.13.52,1.68.21a4.19,4.19,0,0,0-3.72-1.53c-1.66.2-3,1.37-4.24,2.5A64.31,64.31,0,0,0,35.45,35.25c-1.11,2-2.14,4.09-4,5.37V36.35a43.87,43.87,0,0,0-.5-7.86,41,41,0,0,0-2-6.56c-.87-2.33-2.15-5-4.6-5.42-2-.34-3.86,1-5.13,2.59a22.59,22.59,0,0,0-3.21,6,31.06,31.06,0,0,1-1.93,4.47c-.7,1.21-1.61,2.32-2.19,3.6A15.65,15.65,0,0,0,11,36.1c-.21.89-.49,1.79-.61,2.7a2.54,2.54,0,0,0,.3,1.55,47.25,47.25,0,0,1,1.94,4.72Z"/><path class="cls-2" d="M36.3,54.6A8.57,8.57,0,0,1,36,53.5a8.4,8.4,0,0,1-.23-1.87c0-.14,0-.36.18-.22a1.81,1.81,0,0,1,.36.72,5.66,5.66,0,0,1,.28,1.13,3.26,3.26,0,0,1,0,.62,1.05,1.05,0,0,1-.08.36A3.27,3.27,0,0,1,36.3,54.6Z"/><path class="cls-2" d="M54.05,55.94a3.14,3.14,0,0,0,.38-.78,3.5,3.5,0,0,1,1.78-1.41,4.33,4.33,0,0,1,.22,1.79l0,1.84a2.4,2.4,0,0,1-.11.84,2.54,2.54,0,0,1-.74,1L54,60.68a1.17,1.17,0,0,1-.36.27.8.8,0,0,1-.78-.17,1.63,1.63,0,0,1-.45-.7,4.67,4.67,0,0,1-.27-2.56,2.87,2.87,0,0,1,.18-.82.78.78,0,0,1,.63-.34A1.88,1.88,0,0,0,54.05,55.94Z"/><path class="cls-2" d="M57.45,57.41c0-.14.16-.22.29-.27A3.11,3.11,0,0,1,59.06,57a.69.69,0,0,1,.59.27.54.54,0,0,1-.24.69,1.5,1.5,0,0,1-.78.18l-.8,0c-.17,0-.37,0-.44-.16a.3.3,0,0,1,.12-.32.76.76,0,0,1,.33-.11"/><path class="cls-2" d="M56.17,61.42a.85.85,0,0,0,.57.54A1.36,1.36,0,0,0,58,61.5a1.4,1.4,0,0,0,.39-1.17,1.15,1.15,0,0,0-.26-.95c-.63-.59-1.23.31-1.56.77A1.5,1.5,0,0,0,56.17,61.42Z"/><path class="cls-2" d="M52.52,63.16c.26.2.61,0,.92-.1.61-.17,1.23.19,1.86.25.8.08,1.63-.33,2.39-.1a.35.35,0,0,1-.06.44,1.06,1.06,0,0,1-.43.23c-.78.26-1.58.51-2.37.74a1.33,1.33,0,0,1-.68.08,1.86,1.86,0,0,1-.49-.24,4.73,4.73,0,0,0-1.34-.35,2.68,2.68,0,0,1-1.18-.37.88.88,0,0,1-.3-.71c0-.31.27-.37.54-.39a1.57,1.57,0,0,1,.65.08C52.27,62.81,52.33,63,52.52,63.16Z"/><path class="cls-2" d="M57.27,66.53a1,1,0,0,1,.87.23,1,1,0,0,1,.14.44,1.35,1.35,0,0,1-.21,1.2,1.32,1.32,0,0,1-.52.25l-1.38.44a.9.9,0,0,1-.9-.48,1.38,1.38,0,0,1,.61-1.75A3.16,3.16,0,0,1,57.27,66.53Z"/><path class="cls-2" d="M57.29,28.15a.8.8,0,0,0-.41,0,.49.49,0,0,0-.19.52,1.28,1.28,0,0,0,.28.51,3.62,3.62,0,0,0,1.85,1.39,2.28,2.28,0,0,1,.63.18A1,1,0,0,1,59.8,32a1.87,1.87,0,0,1-.87.95,3.61,3.61,0,0,0-.76.51,2,2,0,0,0-.46,1A2.77,2.77,0,0,0,57.79,36a1.41,1.41,0,0,0,1.11.93,4,4,0,0,0-1.22-2.51A1.47,1.47,0,0,1,59,34.32a1.26,1.26,0,0,0,.52.19c.32,0,.49-.37.6-.67a8.57,8.57,0,0,0,.6-2.82,3.85,3.85,0,0,0-.63-2.21c-.33-.46-.75-.47-1.28-.52Z"/><path class="cls-2" d="M56.91,27.34c0,.13,0,.32-.1.34a.23.23,0,0,1-.17-.07,4.51,4.51,0,0,1-1.57-2c0-.14-.18-.38-.08-.53s.31.05.42.12a4,4,0,0,1,.89.86A3.82,3.82,0,0,1,56.91,27.34Z"/><path class="cls-2" d="M58.07,45.08a.53.53,0,0,0-.7.15,1.24,1.24,0,0,0-.19.76,2.62,2.62,0,0,0,.14.93c.3.75,1.15,1.32,1.07,2.12a2.51,2.51,0,0,0-.09.76,2,2,0,0,0,.15.33,2.93,2.93,0,0,1,.08,1.76c.33.25.84,0,.94-.45a1.5,1.5,0,0,0-.33-1.14c.18,0,.27.2.26.38s0,.4.1.5a.65.65,0,0,0,.84-.34,1.79,1.79,0,0,0,0-1,1.42,1.42,0,0,0-.16-.53,1.45,1.45,0,0,0-.35-.35,2.63,2.63,0,0,1-1.15-1.68c0-.28.05-.55.05-.83a.87.87,0,0,0-.3-.74c-.39-.27-.94,0-1.39-.11"/><path class="cls-2" d="M57.15,50.4a1.08,1.08,0,0,0-.66.61,3.4,3.4,0,0,0-.23.9,7.06,7.06,0,0,0,1.3,0,1.35,1.35,0,0,0,.51-.94.69.69,0,0,0-.11-.51.37.37,0,0,0-.48-.09"/><path class="cls-3" d="M60.47,42.46A67.78,67.78,0,0,0,57.94,20a5.52,5.52,0,0,0-1.24-2.53c-1.38-1.36-3.71-1-5.43-.1a22.72,22.72,0,0,0-5.87,5.12c-3.65,4-7.33,8.06-10.08,12.73a39.38,39.38,0,0,0-4,9.37c-.71-4.23.56-8.56.31-12.84s-1.9-8.13-3.77-11.87a6.57,6.57,0,0,0-2.79-3.33,4.55,4.55,0,0,0-4.65,1,12.58,12.58,0,0,0-2.81,4.11c-5.78,11.62-10,23.91-14.28,36.16a57.93,57.93,0,0,0-2.08,6.92,5.92,5.92,0,0,0,.19,4c1.08,2,4.08,2.32,6.08,1.17s3.19-3.29,4.24-5.34c3.09-6.11,5.63-12.49,8.16-18.85a46.84,46.84,0,0,0,2,18.59c.52,1.63,1.27,3.38,2.82,4.11a5.37,5.37,0,0,0,4.34-.28,12.85,12.85,0,0,0,5.61-4.6C36.25,61.3,37,58.68,38,56.19a32.45,32.45,0,0,1,7-10.87,114.9,114.9,0,0,0,.61,17.1c.24,2.21.68,4.63,2.43,6a7.07,7.07,0,0,0,4,1.2,9.23,9.23,0,0,0,4.65-.77c3.4-1.71,4.41-6,4.7-9.83a62.92,62.92,0,0,0,0-9.9c.86,1.65,2.09,3.5,4,3.53a3.59,3.59,0,0,0,3.08-2.16,10.72,10.72,0,0,0,.83-3.86A6.94,6.94,0,0,0,69,43.05a4.4,4.4,0,0,0-3.71-2.32,8.8,8.8,0,0,0-4.42,1"/><path class="cls-4" d="M116.89,24a7.09,7.09,0,0,0-1.28.26,7.41,7.41,0,0,0-1.2.5,5.75,5.75,0,0,0-1.74,1.4,1.36,1.36,0,0,0-.36.88,1.25,1.25,0,0,0,.36.88,1.28,1.28,0,0,0,.89.37,1.18,1.18,0,0,0,.88-.37,4.77,4.77,0,0,1,.76-.73l-.25.19a5.52,5.52,0,0,1,1.13-.65l-.3.12a5.5,5.5,0,0,1,1.39-.38l-.33,0h0a1.34,1.34,0,0,0,.88-.36,1.24,1.24,0,0,0,0-1.77,1.18,1.18,0,0,0-.88-.37Z"/><path class="cls-18" d="M60.59,48.3c3.22,0,3.23-5,0-5s-3.22,5,0,5Z"/><path class="cls-18" d="M59.75,44.39l0-.09,0,.16a.54.54,0,0,1,0-.18l0,.17a3.68,3.68,0,0,1,.18-.59,1.37,1.37,0,0,0,0-.87.69.69,0,0,0-.29-.38.66.66,0,0,0-.48-.06.6.6,0,0,0-.37.29.62.62,0,0,0-.07.48.56.56,0,0,1,0,.12l0-.16a.54.54,0,0,1,0,.18l0-.17a3.74,3.74,0,0,1-.17.57,1.49,1.49,0,0,0,0,.86.67.67,0,0,0,.29.37.62.62,0,0,0,.48.07.64.64,0,0,0,.37-.29.68.68,0,0,0,.07-.48Z"/><path class="cls-18" d="M58.51,39.54c-.21,2.14,1.28,3.81,1.92,5.73a.63.63,0,0,0,1.21-.33c-.6-1.78-2.07-3.43-1.88-5.4a.62.62,0,0,0-.62-.62.64.64,0,0,0-.63.62Z"/><path class="cls-4" d="M60,40.06c0,1.52.23,3,.25,4.55h1.25a3.78,3.78,0,0,1,.16-1,1.91,1.91,0,0,1,.32-.79A.62.62,0,0,0,61.8,42a.64.64,0,0,0-.86.22,2.83,2.83,0,0,0-.45,1.09,5.33,5.33,0,0,0-.2,1.31.65.65,0,0,0,.63.63.63.63,0,0,0,.62-.63c0-1.52-.21-3-.25-4.55a.64.64,0,0,0-.63-.63.63.63,0,0,0-.62.63Z"/><path class="cls-19" d="M59.62,40.24c.06.41.17.81.27,1.21l.53,2a.32.32,0,0,0,.22-.19.79.79,0,0,0,0-.3,4.79,4.79,0,0,0-.09-1.07c-.05-.26-.13-.52-.18-.78a8.3,8.3,0,0,0-.34-1.8.7.7,0,0,0-.25-.33.18.18,0,0,0-.22,0s0,.08,0,.12a.86.86,0,0,0,0,.16,4.7,4.7,0,0,0,0,.65C59.59,40,59.6,40.12,59.62,40.24Z"/><path class="cls-20" d="M61.5,44.55c-.08,0-.12-.2-.14-.36a11.81,11.81,0,0,1,0-1.33c0-.37.1-.68.32-.72s.38.74.25,1.14S61.62,44.11,61.5,44.55Z"/><path class="cls-21" d="M168.87,32.65c0-.49-.6-.71-1.09-.78-1.49-.21-3.13-.39-4.38.44a4.7,4.7,0,0,0-1.78,2.82A5.45,5.45,0,0,0,161.4,37a4.09,4.09,0,0,0,2.84,3.42,4.57,4.57,0,0,0,4.36-1.07,5.21,5.21,0,0,0,1.52-4.29,3.3,3.3,0,0,0-1.31-2.44"/><path class="cls-4" d="M169.87,32.65c-.06-1.45-1.49-1.71-2.65-1.86a7.42,7.42,0,0,0-3.41.21c-2.27.84-3.54,3.51-3.42,5.85a5.08,5.08,0,0,0,4,4.64,5.67,5.67,0,0,0,5.94-2.68c1.27-2.17,1.25-5.5-1-7a1,1,0,1,0-1,1.72c1.13.78,1,2.72.52,3.83a3.68,3.68,0,0,1-3.33,2.28,3.08,3.08,0,0,1-3-2.13,4.54,4.54,0,0,1,1.18-4.14,3.19,3.19,0,0,1,2.24-.64,14,14,0,0,1,1.44.12,3.12,3.12,0,0,1,.53.11s0,0,.07,0,.06,0,0,0a.46.46,0,0,1-.11-.28,1,1,0,1,0,2,0Z"/><path class="cls-22" d="M165.73,22.21a1.11,1.11,0,0,1,.58-.5A.88.88,0,0,1,167,22a3.64,3.64,0,0,1,.54.57c.14.18.26.38.38.57a28.76,28.76,0,0,1,1.43,2.55,3.19,3.19,0,0,1,.33.84,1.23,1.23,0,0,1-.15.89,1.21,1.21,0,0,1-.83.39,28.26,28.26,0,0,1-5.12.17,1.12,1.12,0,0,1-.32,0,.85.85,0,0,1-.43-.32.68.68,0,0,1-.14-.53c0-.09.09-.17.12-.26l.15-.33c.1-.22.2-.43.31-.65.22-.42.46-.82.71-1.22s.52-.78.79-1.16.55-.75.82-1.12Z"/><path class="cls-1" d="M148.1,34.77a12,12,0,0,0-4.79-7.08,14.5,14.5,0,0,0-7.5-1.88C131,25.68,125.46,27,123,31.19c-1.15-1.26-1.65-3-2.67-4.34s-3-2.32-4.39-1.31l-2.71,1.85c1.23,9.34-1.21,18.71-3.28,27.9q-3,13.49-5,27.17a2,2,0,0,0,.05,1.08,1.82,1.82,0,0,0,1.13.8,12.82,12.82,0,0,0,4,.65,4.66,4.66,0,0,0,2.19-.45c1.67-.92,2-3.14,2.06-5,.19-3.54.37-7.09.56-10.63,3,2.44,7.31,3,11.15,2.21a32.47,32.47,0,0,0,10.64-4.78,27.8,27.8,0,0,0,7.88-6.65c3.35-4.56,4-10.53,4.16-16.19A30.16,30.16,0,0,0,148.1,34.77Zm-9.37,14.89A17.36,17.36,0,0,1,134,55.79a18,18,0,0,1-5.88,3.73,9.06,9.06,0,0,1-6.83-.18,1.21,1.21,0,0,1-.6-.51,1.26,1.26,0,0,1,.07-.89c2-6,3.47-12.38,2.94-18.71l.24-2.19c2.87-2.21,6.81-2.28,10.42-2a5,5,0,0,1,2.71.79,4.68,4.68,0,0,1,1.35,2.2C139.76,41.78,140.25,46,138.73,49.66Z"/><path class="cls-2" d="M120.86,47.83c.48.8.35,2.21,1.28,2.3.76.08,1.09-.93,1.15-1.7l.6-8.36a5.08,5.08,0,0,1,.87-3,5,5,0,0,1,1.91-1.23,10.64,10.64,0,0,1,4.53-1.24,10.5,10.5,0,0,1,3.49,1l4.61,1.85c-.21,3,.35,6,.26,9s-1,6.22-3.41,8a10.79,10.79,0,0,0,1.57,6.71,6,6,0,0,0-1.36-1.83,2.07,2.07,0,0,0-2.13-.4,15.67,15.67,0,0,0,2.46,4.79,4.32,4.32,0,0,0,1.25,1.4,1.53,1.53,0,0,0,1.77,0L139.13,61a7.86,7.86,0,0,0-.45-1.93c-.24-.56-.61-1.06-.9-1.6a6.44,6.44,0,0,1-.77-3.22c.11.79,1,1.2,1.71,1.55s1.51,1,1.27,1.81a6.65,6.65,0,0,0,1.69-3.16,2.3,2.3,0,0,0-1.81-2.67c.12-.48-.07-1,0-1.47s.72-.93,1-.55a.75.75,0,0,1,.15.43,13.36,13.36,0,0,1,.14,2c-.21-1.21.81-2.26,1.79-3s2.11-1.54,2.27-2.76c.29-2.2-2.79-3.73-2.59-6a2.22,2.22,0,0,1-2.82-1.37l1.15-.63.14,1.13c.52-.41,1.27,0,1.75.42s1,1,1.67.91l.44,1c.51.11.89-.56.73-1a2.22,2.22,0,0,0-1.07-1.07,2.22,2.22,0,0,1-1.06-1.08c-.28-.87.55-1.66,1.29-2.2a1.52,1.52,0,0,1-1.37-1.71A2.9,2.9,0,0,1,145.15,37a2.77,2.77,0,0,0,.2.86,1,1,0,0,0,1.29.43,1,1,0,0,0,.44-1.29c-1,.17-1.44-1.24-2-2.13-.93-1.55-3.29-2.29-3.3-4.1a1.9,1.9,0,0,1-2.42,1.52c-.44-.15-.3-.87.11-1.1a6.48,6.48,0,0,1,1.35-.3,4.75,4.75,0,0,1,1.36-.46c.75,0,1.22.79,1.64,1.4s1.24,1.22,1.85.78l-1.8-.62c-.3-.11-.65-.26-.73-.58-.13-.54.6-.82,1-1.2a1.79,1.79,0,0,0-.28-2.53,5.16,5.16,0,0,0-2.67-.95l-6.41-1a7.71,7.71,0,0,0-6.53,1.1l-5.6,3.09a7,7,0,0,1-1-2.77,12.79,12.79,0,0,0-4.81-1.33l.54,2a2.77,2.77,0,0,1-1.28-.09l-.15-.67-1.65.07c.08,0,0,5.6,0,6.1q-.09,3.07-.41,6.14c-.1,1-.23,2-.37,3.06a10.53,10.53,0,0,0-.28,2.5c.14,1.33,1.67,1.76,2.79,2a19.4,19.4,0,0,0,2.75.07A2.21,2.21,0,0,1,120.86,47.83Z"/><path class="cls-2" d="M115.08,52.37a9.74,9.74,0,0,1-4.23,2.06l-.13,2.07a5,5,0,0,1,1.6-.43,30.15,30.15,0,0,1,.1,3.92,3,3,0,0,1-.89,2.38c-1,.75-2.53,0-3.71.49a7.28,7.28,0,0,1,0,5.43,1.85,1.85,0,0,1,1.78-.68,7.25,7.25,0,0,1-.24,5.32,6.38,6.38,0,0,0-.54,1.3c-.23,1.09.34,2.17.5,3.27s-.5,2.54-1.6,2.37a1.63,1.63,0,0,1-1-.66c-.87-1.12-.79-2.69-.67-4.12.38-4.33.78-8.72,2.23-12.82a23.28,23.28,0,0,0,1.26-4c.22-1.35.09-2.73.25-4.08a13.67,13.67,0,0,1,1-3.61,4.65,4.65,0,0,1,1.18-2,5.49,5.49,0,0,1,2.21-.65c.63-.17,1.07-.4,1.54.2a2.44,2.44,0,0,1,.49,1.3A3.76,3.76,0,0,1,115.08,52.37Z"/><path class="cls-2" d="M112.13,71.86a14.68,14.68,0,0,1,0,2.39c-.12.64-.44,1.34-.09,1.88a1.07,1.07,0,0,0,1.07.42,1.74,1.74,0,0,0,1-.64,5.21,5.21,0,0,0,.73-3.54,2,2,0,0,0-.11-.69,2.07,2.07,0,0,0-.71-.79c-.3-.22-.54-.49-.81-.72C112.53,69.57,112.14,71.43,112.13,71.86Z"/><path class="cls-2" d="M147.85,52.45c-.27-2-.51-4.23.41-6.07a4,4,0,0,0,.49-1.17.9.9,0,0,0-.55-1c-.15,0-.31,0-.45-.07-.45-.13-.53-.72-.5-1.19a10.39,10.39,0,0,1,.69-3c.09-.26.25-.54.52-.57s.58.43.66.81a22.93,22.93,0,0,1,.6,4.8,24.22,24.22,0,0,1-.72,4.64,27.29,27.29,0,0,0-.56,4.58c0,.25,0,.93-.43.86s-.59-.57-.75-.79a12,12,0,0,0-1-1.26c-.36-.37-1-.84-.63-1.43s.8-.2,1.1.09a6.5,6.5,0,0,0,.52.53S147.86,52.52,147.85,52.45Z"/><path class="cls-3" d="M148.1,35.13a12,12,0,0,0-4.79-7.08,14.5,14.5,0,0,0-7.5-1.88C131,26,125.46,27.35,123,31.55c-1.15-1.26-1.65-3-2.67-4.34s-3-2.33-4.39-1.31l-2.71,1.85c1.23,9.33-1.21,18.71-3.28,27.9q-3,13.47-5,27.17a1.94,1.94,0,0,0,.05,1.07,1.78,1.78,0,0,0,1.13.8,12.27,12.27,0,0,0,4,.65,4.43,4.43,0,0,0,2.19-.45c1.67-.91,2-3.14,2.06-5,.19-3.55.37-7.09.56-10.63,3,2.44,7.31,3,11.15,2.2a32.66,32.66,0,0,0,10.64-4.77A27.67,27.67,0,0,0,144.64,60c3.35-4.56,4-10.52,4.16-16.18A30.16,30.16,0,0,0,148.1,35.13ZM138.73,50A17.4,17.4,0,0,1,134,56.15a18.1,18.1,0,0,1-5.88,3.72,9,9,0,0,1-6.83-.17,1.21,1.21,0,0,1-.6-.51,1.28,1.28,0,0,1,.07-.9c2-6,3.47-12.37,2.94-18.7l.24-2.19c2.87-2.21,6.81-2.28,10.42-2a5.07,5.07,0,0,1,2.71.78,4.76,4.76,0,0,1,1.35,2.21C139.76,42.14,140.25,46.36,138.73,50Z"/><path class="cls-23" d="M224,43.76c-.86-3.79-4.13-7.3-8-7.16,3.59-3.75,6.64-8.26,7.54-13.37a9.46,9.46,0,0,0,0-4c-.87-3.34-4.3-5.41-7.68-6.12s-6.89-.4-10.3-.86c-3.84-.52-7.69-2-11.47-1.2l-2.2.57c-.24,10.31-3.13,20.35-4.38,30.58-.82,6.68-1,13.52-3.14,19.88-.76,2.23-1.78,4.47-1.69,6.83a98.54,98.54,0,0,0,21.51-.44c6.09-.79,12.72-2.56,16.12-7.67a22.06,22.06,0,0,0,2.42-5.59C223.89,51.5,224.88,47.56,224,43.76Zm-26.5-11.11q2-5.67,3.92-11.33l.94-1.61c3.18-.19,6.62-.32,9.24,1.5a3.11,3.11,0,0,1,1.16,1.28A3.54,3.54,0,0,1,213,24a11.06,11.06,0,0,1-1.75,5.68,8.18,8.18,0,0,1-4.75,3.46,13,13,0,0,1-3.05.29c-1.8,0-3.6,0-5.39-.11-.22,0-.47,0-.57-.24A.6.6,0,0,1,197.53,32.65Zm15.48,17a16.1,16.1,0,0,1-4.19,6.1A15.6,15.6,0,0,1,201,59.06a46.83,46.83,0,0,1-8.54.24,135.93,135.93,0,0,0,5.81-16.79L199.66,41a59.82,59.82,0,0,1,9,.14,6.67,6.67,0,0,1,3.87,1.23A4.55,4.55,0,0,1,214,45.88,10.12,10.12,0,0,1,213,49.68Z"/><path class="cls-4" d="M225.23,43.43c-1-4.26-4.59-8.12-9.22-8.08l.89,2.14a32.4,32.4,0,0,0,6.51-9.5c1.42-3.36,2.47-7.64.52-11-1.76-3.06-5.31-4.7-8.68-5.24a55.29,55.29,0,0,0-6.43-.47,43.91,43.91,0,0,1-6.86-1,21.86,21.86,0,0,0-7.15-.64,26.61,26.61,0,0,0-3.27.74,1.31,1.31,0,0,0-.92,1.21c-.28,10-2.93,19.63-4.24,29.47-.63,4.74-.85,9.53-1.65,14.24A42.57,42.57,0,0,1,183,62.17a19.48,19.48,0,0,0-1.59,6.74,1.28,1.28,0,0,0,1.25,1.25,89.08,89.08,0,0,0,25.46-1.08,24.93,24.93,0,0,0,9.2-3.6,16.12,16.12,0,0,0,6-8.28c1.57-4.38,2.83-9.11,1.87-13.77-.32-1.57-2.73-.91-2.41.67a17.24,17.24,0,0,1-.4,7.62,34,34,0,0,1-2.35,6.94c-1.8,3.61-5.12,5.78-8.87,7a52.41,52.41,0,0,1-12.88,2.13,101.09,101.09,0,0,1-15.66-.15l1.25,1.25c0-2.45,1.05-4.65,1.79-6.93a43.33,43.33,0,0,0,1.55-6.67c.76-4.78,1-9.63,1.66-14.43,1.35-9.76,3.94-19.36,4.21-29.26l-.91,1.21a20,20,0,0,1,3.22-.73c2.53-.21,5,.46,7.47,1a47.45,47.45,0,0,0,7.33.76,23.92,23.92,0,0,1,6.84.93A8.7,8.7,0,0,1,221.6,18c1.29,2,1,4.38.39,6.54-1.15,4.32-3.83,8-6.86,11.23a1.26,1.26,0,0,0,.88,2.13c3.53,0,6,3.06,6.81,6.25C223.2,45.66,225.62,45,225.23,43.43Z"/><path class="cls-4" d="M198.73,33c1-2.76,1.91-5.52,2.87-8.27a25.75,25.75,0,0,1,1.06-3c.24-.47.54-.92.81-1.38l-1.08.62c2.37-.14,4.89-.32,7.15.55,1.08.41,2.21,1,2.21,2.27a10.07,10.07,0,0,1-.7,3.64,7.32,7.32,0,0,1-4.76,4.52,15.63,15.63,0,0,1-4,.29c-.7,0-1.4,0-2.1,0l-1.2,0-.59,0c-.41-.06-.4,0,0,.11l.36.88V33a1.25,1.25,0,0,0-2.41-.66,1.68,1.68,0,0,0,1.16,2.21,13.4,13.4,0,0,0,3,.17,26.56,26.56,0,0,0,6.11-.25,10,10,0,0,0,7.19-7.24c.48-1.65.93-4,0-5.58s-2.85-2.4-4.49-2.83a19.08,19.08,0,0,0-5.49-.41c-.85,0-1.94-.1-2.47.7-.23.33-.41.7-.62,1.05a29.38,29.38,0,0,0-2,5.21q-1.2,3.48-2.41,7C195.79,33.84,198.21,34.5,198.73,33Z"/><path class="cls-4" d="M211.93,49.05c-1.51,3.51-3.76,6.42-7.42,7.83-3.83,1.46-8,1.3-12,1.17l1.21,1.58q2.26-5.4,4.07-11a36.25,36.25,0,0,0,1.63-5.42c0,.12-.25.24,0-.11.11-.14.25-.28.37-.42l.74-.85-.88.37a47.1,47.1,0,0,1,9.86.24c1.42.23,2.63.79,3,2.28s-.17,3.17-.76,4.61,1.81,2.13,2.41.66c1.41-3.41,1.56-8-2.53-9.57a19.15,19.15,0,0,0-5.89-.77c-1.09-.05-2.18-.07-3.27-.05a16.15,16.15,0,0,0-3,.12c-.83.17-1.5,1.17-2,1.81a5.93,5.93,0,0,0-.82,2.18c-.3,1-.61,2.07-.93,3.1C194.45,50.94,193,55,191.3,59c-.33.79.48,1.56,1.2,1.58,4.49.15,9.12.24,13.33-1.53a15.66,15.66,0,0,0,8.26-8.71C214.72,48.85,212.56,47.58,211.93,49.05Z"/><path class="cls-4" d="M60.5,49.15v.08a.67.67,0,0,0,.29.37.7.7,0,0,0,.4.08.62.62,0,0,0,.36-.18.65.65,0,0,0,.18-.44,6.37,6.37,0,0,0-.23-1.43l0,.17a1.49,1.49,0,0,1,0-.21l-1.16.32a8.35,8.35,0,0,0,.65.82.6.6,0,0,0,.88,0,.63.63,0,0,0,0-.88l-.33-.39.1.12-.22-.3a.69.69,0,0,0-.3-.26.64.64,0,0,0-.41,0,.63.63,0,0,0-.46.6,11.61,11.61,0,0,0,.24,1.31l0-.17a1.22,1.22,0,0,1,0,.33l1.23-.16,0-.08a.63.63,0,0,0-.77-.44.64.64,0,0,0-.43.77Z"/><path class="cls-24" d="M102.39,24c.44.41.87.84,1.27,1.29a2.89,2.89,0,0,1,.42.57,3,3,0,0,1,.2,1.34,1,1,0,0,0,.88-.25,1.9,1.9,0,0,0,.48-.81,2.46,2.46,0,0,0,.16-.75,2.85,2.85,0,0,0-.29-1.28,3.6,3.6,0,0,0-1.23-1.5,2.25,2.25,0,0,0-1.87-.31,1.42,1.42,0,0,0-.66.41c-.12.15-.28.42-.21.62s.1.13.17.17a2.3,2.3,0,0,1,.33.21Z"/></g></g></svg>